<svg xmlns="http://www.w3.org/2000/svg" viewBox="0 0 500 500"><g id="freepik--Lines--inject-4"><polygon points="378.67 157.13 388.87 124.58 394.69 128.71 378.67 157.13" style="fill:#455a64"></polygon><polygon points="386.68 165.06 414.45 158.28 416.01 165.94 386.68 165.06" style="fill:#455a64"></polygon><polygon points="383.76 158.68 418.8 124.94 425.56 134.25 383.76 158.68" style="fill:#455a64"></polygon></g><g id="freepik--Character--inject-4"><path d="M386.26,453.51H290.83q-2.68-8-5.07-15.59c-2-6.28-3.59-12.34-4.86-18.09-.3-1.36-.58-2.71-.84-4-.51-2.61-.95-5.15-1.3-7.61-1.78-12.35-1.52-22.61,1-29.57,2.25-6.22,6.32-9.8,12.38-9.87h.73c.49,0,1,.05,1.49.11,9.72,1.12,23.87,10.22,43,30.14q6.88,7.17,14.66,16.24,2.58,3,5.34,6.18C366,431.33,375.88,442.26,386.26,453.51Z" style="fill:#ad6359"></path><path d="M407,453.51H280.68c-2.44-6.25-4.71-12.26-6.76-17.95q-2.3-6.37-4.1-12.28c-.49-1.6-1-3.18-1.39-4.73h0q-1.32-4.64-2.32-9c-.43-1.82-.82-3.59-1.16-5.33s-.63-3.23-.89-4.79c-.17-1-.33-2.06-.47-3.07s-.27-2-.39-3c-.18-1.54-.33-3-.43-4.49-.06-.78-.11-1.55-.15-2.3,0-.13,0-.26,0-.39-.47-10.34,1-18.42,4.06-24.1a18,18,0,0,1,9.57-8.69,6.39,6.39,0,0,1,.73-.27c4.76-1.57,10.58-1.3,17.29.9h0c8.63,2.83,18.72,8.84,29.91,18.18C347.09,391.42,377.77,422.43,407,453.51Z" style="fill:#FFC727"></path><path d="M374.79,420.09a64.2,64.2,0,0,0,7.54,20.83c2.62,4.5,7.62,10.66,13.34,6.9a8.25,8.25,0,0,0,2.8-3.23C390.59,436.25,382.61,428,374.79,420.09Zm-27.63,33.42H359C355,451,350.42,450,347.16,453.51Zm11.42-49.59c-6.95-6.82-13.74-13.28-20.12-19.08-1.68,2.34-2.07,5.74-1.63,9.4a36,36,0,0,0,.58,4.75,53.85,53.85,0,0,0,5.11,14.87c2,3.66,5.52,9.91,10.51,9.83a5.33,5.33,0,0,0,4.38-2.28c1.59-2.11,2.18-5.28,2.28-7.75A51.28,51.28,0,0,0,358.58,403.92Z" style="fill:#263238"></path><path d="M320.15,453.51H280.7c-2.45-6.25-4.72-12.26-6.76-17.95q-2.29-6.37-4.11-12.28-.74-2.4-1.4-4.73-1.32-4.64-2.32-8.95h0c-.43-1.82-.82-3.59-1.16-5.33s-.63-3.23-.89-4.79c-.17-1-.33-2.06-.47-3.07s-.27-2-.39-3c-1.63-13.84-.3-24.33,3.5-31.26a21.36,21.36,0,0,1,2.34-3.48l2.94,5.45,7.8,14.47L290,397.66l3.72,6.9,1,1.77,14.6,27.08L317,447.68Z" style="opacity:0.1"></path><path d="M318.24,453.51h-64c0-10.61,0-20.88,0-30.57,0-1.89,0-3.76,0-5.61,0-3.49,0-6.9,0-10.21.06-24,.17-42.95.22-52.32h0c0-4.15.05-6.43.05-6.43l-.58-2.18-1.14-4.27A73.58,73.58,0,0,1,277,353.19q2,1.41,4,3.06a67.5,67.5,0,0,1,9.51,9.42c.3.36.59.71.88,1.08.51.65,1,1.31,1.5,2s1.1,1.52,1.62,2.32h0a64.8,64.8,0,0,1,6.37,12.19c4.19,10.61,9.9,34.94,16.14,64.42Q317.61,450.56,318.24,453.51Z" style="fill:#FFC727"></path><path d="M313,453.51H108.4c24.63-40.75,48-75.33,60.51-87.89a50.5,50.5,0,0,1,5.32-4.67,65.55,65.55,0,0,1,12.34-7.49,86.35,86.35,0,0,1,13.4-5c2.52-.73,5.09-1.35,7.69-1.89a123.64,123.64,0,0,1,37.09-1.74h0c3.16.33,6.25.78,9.25,1.35a81.73,81.73,0,0,1,22.21,7.28,48.59,48.59,0,0,1,4.77,2.79,32.92,32.92,0,0,1,8.54,7.94c.32.45.65.94,1,1.48.21.35.42.71.63,1.09q.51.93,1,2,1.22,2.52,2.45,5.76h0c4.88,12.86,9.89,33.9,14.72,58.9C310.56,439.87,311.8,446.59,313,453.51Z" style="fill:#ebebeb"></path><path d="M192.85,367.44a231.35,231.35,0,0,0,22.68,25.88c8.15,7.9,17.1,15,27.09,19.78s21.12,7,31.77,4.56,19.66-10.62,24-21.37c-2.09,11.35-10.78,22.19-22.78,25.65-11.78,3.72-24.69,1.5-35.45-3.71a91,91,0,0,1-27.82-21.84A127.87,127.87,0,0,1,192.85,367.44Z" style="fill:#c7c7c7"></path><path d="M203.46,453.51H95.29c20.77-40.2,38.66-73.55,45.62-82.18h0a14.78,14.78,0,0,1,1.13-1.29c8.37-8.31,20.46-14.25,31.41-18.3a165.21,165.21,0,0,1,26.36-7.31s.05,1.41.15,4c.19,5.33.57,15.64,1,29.22q.08,2.07.15,4.23C201.82,401.41,202.66,426.75,203.46,453.51Z" style="fill:#FFC727"></path><path d="M194.81,397.51h0c-.07-.17-.15-.33-.23-.49s-.21-.39-.32-.57l0,0a6.41,6.41,0,0,0-.39-.52h0a2.81,2.81,0,0,0-.29-.31c-.15-.15-.3-.28-.45-.41h0a5,5,0,0,0-.47-.33,2.68,2.68,0,0,0-.33-.18,4.23,4.23,0,0,0-1-.37l-.19-.05h0a7,7,0,0,0-3.29.26,22.87,22.87,0,0,0-6.62,3.59,54,54,0,0,0-7,6.17c-.74.77-1.46,1.57-2.16,2.39-.47.55-.92,1.11-1.37,1.68s-.88,1.14-1.31,1.73a43,43,0,0,0-7.25,15.42c-.27.62-.53,1.23-.76,1.85q-.17.41-.3.81c-.08.23-.16.46-.23.69s-.18.58-.26.86c-1,3.48-1,6.63.68,8.64.09.11.19.21.3.32a5.54,5.54,0,0,0,.68.57h0a6.86,6.86,0,0,0,2.3,1,1.86,1.86,0,0,0,.34.06l.33.06a7,7,0,0,0,3-.36c.28-.09.57-.2.86-.32h0a9.37,9.37,0,0,0,1-.48c.32-.16.64-.34.95-.53s.55-.34.83-.53a33.54,33.54,0,0,0,3.39-2.65l.43-.39c.13-.11.25-.22.38-.35l.79-.73.36-.34c.43-.4.83-.8,1.21-1.16l.89-.87c.52-.5,1-1,1.55-1.55s.77-.8,1.15-1.22.87-1,1.3-1.45.85-1,1.26-1.49h0A52.74,52.74,0,0,0,192.42,413C194,409.21,196.64,402,194.81,397.51Z" style="fill:#263238"></path><path d="M191.27,394.28h0c-2.67,11.49-8.9,25.27-18.82,40.21-1.12,1.69-2.26,3.41-3.41,5.18h0c-2.85,4.38-5.81,9-8.84,13.82h-89c28.29-28.13,72.43-95.79,106.49-97.5C193.35,355.22,195.84,374.57,191.27,394.28Z" style="fill:#ad6359"></path><path d="M198,376.91a81.57,81.57,0,0,1-3.18,20.59h0q-.63,2.34-1.39,4.78c-.2.63-.4,1.27-.61,1.91-.32,1-.65,2-1,3-.26.73-.52,1.47-.79,2.21s-.47,1.3-.72,1.95-.49,1.32-.75,2c-1,2.67-2.09,5.44-3.24,8.28-.28.71-.57,1.43-.87,2.15l-.89,2.18h0c-3.55,8.61-7.62,17.89-12.05,27.57H68.64c.18-.18,31.28-41,55.72-67,22.51-23.94,48.56-39.24,62.21-33,6.88,3.13,10.81,10.13,11.36,20.49h0C198,374.91,198,375.89,198,376.91Z" style="fill:#FFC727"></path><path d="M194.58,397c-.1-.2-.21-.39-.32-.57l0,0a6.41,6.41,0,0,0-.39-.52h0a2.81,2.81,0,0,0-.29-.31,3.47,3.47,0,0,0-.45-.41h0a5,5,0,0,0-.47-.33,2.68,2.68,0,0,0-.33-.18,4.23,4.23,0,0,0-1-.37h0l-.19,0h0a7,7,0,0,0-3.29.26,22.87,22.87,0,0,0-6.62,3.59,54,54,0,0,0-7,6.17c-.74.77-1.46,1.57-2.16,2.39-.47.55-.92,1.11-1.37,1.68s-.88,1.14-1.31,1.73a43,43,0,0,0-7.25,15.42c-.27.62-.53,1.23-.76,1.85q-.17.41-.3.81c-.08.23-.16.46-.23.69s-.18.58-.26.86c-1,3.48-1,6.63.68,8.64.09.11.19.21.3.32a5.54,5.54,0,0,0,.68.57h0a7,7,0,0,0,2.31,1l.33.07.33.06a7,7,0,0,0,3-.36c.28-.09.57-.2.86-.32h0a9.37,9.37,0,0,0,1-.48c.32-.16.64-.34.95-.53s.55-.34.83-.53a33.54,33.54,0,0,0,3.39-2.65l.43-.39c.13-.11.25-.22.38-.35l.79-.73.36-.34c.43-.4.83-.8,1.21-1.16l.89-.87c.52-.5,1-1,1.55-1.55s.77-.8,1.15-1.22.87-1,1.3-1.45.85-1,1.26-1.49h0l.89-2.18c.3-.72.59-1.44.87-2.15,1.15-2.84,2.23-5.61,3.24-8.28.26-.67.51-1.33.75-2s.49-1.31.72-1.95.53-1.48.79-2.21c.35-1,.68-2,1-3,.21-.64.41-1.28.61-1.91q.77-2.44,1.39-4.78h0C194.74,397.33,194.66,397.17,194.58,397Z" style="fill:#263238"></path><path d="M175.65,451.43c-.36.69-.72,1.39-1.09,2.08h-.93c.49-.79,1-1.57,1.49-2.36A.3.3,0,0,1,175.65,451.43Z" style="fill:#263238"></path><path d="M378.3,220c-.09,0-.18.09-.1.14,9.59,6.46,15.33,18.22,10.88,29.7-3.81,9.81-12.14,14.12-21.37,15.14,7.93-3.89,14.77-10.2,17.51-18.7,3-9.33.24-20-7.32-25.93,7.31-8.54,12.18-20.1,9.55-31.16-2.2-9.31-9.73-16.95-19.3-18.32,5.48-9.68,5.05-22.26-1.95-30.87-6.55-8.09-17.58-11.4-27.8-9.17a22.46,22.46,0,0,0-20.92-32.15c1.65-5.78-.73-11.91-5.4-15.69-5.37-4.38-12.69-4.89-19.52-4.15a18,18,0,0,0-12.88-12,17.4,17.4,0,0,0-19.55,10.35c-9.59-5.44-20.79-10-32.1-7.53-9.31,2-18,8.93-19.77,18.41-18.51-7.42-39.66,2.87-45.47,22.16-8.29-.84-16.5,3.2-21.56,9.94s-6.57,12.54-7,15.32a18.19,18.19,0,0,0-17.13,11.8c-2.63,6.93-1,13.58,2.36,19.58a13.38,13.38,0,0,1-1.72,5.68c-5,9.22-5.39,19.57-.69,28.71-9.08,8.48-8.32,23.9,1.49,31-6.25,10.94-1.85,25.65,9.23,31.17a33.56,33.56,0,0,0,.31,28.23c3.31,6.74,10,12.77,17.82,12-1.92,5.69,2.68,11.44,8.11,13.46a29.39,29.39,0,0,0,6.43,1.46c2.59.34,6,.08,8.34,1.33s3.47,4.25,5,6.33a26.19,26.19,0,0,0,3.8,4.08c8.56,7.38,21.23,9,31.71,4.75a28.93,28.93,0,0,0,7.25-4.19c5.36,7.14,14.77,8.54,23.45,7.11,1-.17,2-.38,3-.62a54.08,54.08,0,0,0,8.9-3.23,27.51,27.51,0,0,1,3-1.15,11,11,0,0,1,5.12-.41c1.82.3,3.54,1,5.36,1.31,6.18,1,11.49-1.92,16.39-5.4A26.45,26.45,0,0,0,296.67,338h0c15.86,3.51,33.69-8.81,37.07-27a30.93,30.93,0,0,0,26.65-10.54h0a27.64,27.64,0,0,0,1.93-2.59,29.13,29.13,0,0,0,1.59-28.71h0s0,0,0,0,0,0,0,0c-.29-.6-.6-1.19-.94-1.77.3,0,.61,0,.92,0,11.5.15,22.75-5,27.14-16.8C395.71,238.07,389.52,225.83,378.3,220ZM134,137.27s-2.35,1.1-3.43,1.76a24.87,24.87,0,0,0-11.27,17.27,25,25,0,0,0,0,6.29c0,.28,0,.51,0,.78a22.05,22.05,0,0,1-1.09-12.18c1.73-8,7.86-13.4,15.81-14.88C134,136.89,134,137.27,134,137.27ZM279.36,68.34c6,1.43,9.29,5.66,11,10.73h-.12a19.1,19.1,0,0,0-8.65-6.35,18.33,18.33,0,0,0-20,5.25l-.52-.29C265.19,71.17,270.75,66.3,279.36,68.34Zm17.71,267.74h0c-4.73-1.08-9.55-3.71-14.24-8.27l.22-.15a31.69,31.69,0,0,0,14.63,5.6h0a33.46,33.46,0,0,0,30.08-12.66C320.27,331.71,308.93,338.79,297.07,336.08Z" style="fill:#263238"></path><path d="M274.77,409.28c-21.37,3.81-56.48-16.75-69.32-43.67-.86-1.85,10.58-73.06,11.39-87.41l88.75,26.9s-10.53,29.58-11.78,54.6a32.54,32.54,0,0,0,.29,5.92c0,.27.07.6.07,1C295.37,377.89,295.42,405.59,274.77,409.28Z" style="fill:#ad6359"></path><path d="M294.08,365.63c0,.25.07.57.08.95a57,57,0,0,1-9.26,0c-52-4.08-60.7-68.5-62.07-86.56L245,286.75l60.58,18.36S295,334.7,293.84,359.71A30.26,30.26,0,0,0,294.08,365.63Z" style="fill:#263238"></path><path d="M202.19,179.43c-7.71,33.23,15.92,126.09,40.51,145.47C278.34,353,333.5,352.14,356.56,310,378.91,269.2,346,148.73,318.81,131.45,278.8,106,213.57,130.34,202.19,179.43Z" style="fill:#ad6359"></path><path d="M294,228.83c-.11-.22-.42.42-.35.68,1.76,6.21,2.73,13.62-2.42,17.11-.16.11-.06.42.14.34C298,244.26,296.64,234.44,294,228.83Z" style="fill:#263238"></path><path d="M286.75,223.69c-10.26,1.74-6,22.14,3.5,20.52C299.6,242.62,295.36,222.22,286.75,223.69Z" style="fill:#263238"></path><path d="M331.82,221c0-.25.56.19.6.45,1.12,6.36,3.47,13.46,9.62,14.37.19,0,.24.35,0,.36C334.88,236.67,331.86,227.22,331.82,221Z" style="fill:#263238"></path><path d="M336.09,213.24c10-2.88,15,17.33,5.77,20S327.71,215.66,336.09,213.24Z" style="fill:#263238"></path><path d="M275.39,209.53a81.13,81.13,0,0,1,8.25-2.26c3.17-.84,5.61-1.83,8.85-.71a4.42,4.42,0,0,1,2.46,4.79c-1,4.05-4.63,6-8.41,7.2a16,16,0,0,1-11.55-.44C271.14,216.55,271.78,210.89,275.39,209.53Z" style="fill:#263238"></path><path d="M341.3,197.32a81.21,81.21,0,0,1-8.54-.52c-3.27-.24-5.9-.09-8.6-2.2a4.39,4.39,0,0,1-.78-5.32c2.25-3.52,6.33-4.22,10.28-4.1a16.13,16.13,0,0,1,10.8,4.14C347.59,192.05,345.16,197.2,341.3,197.32Z" style="fill:#263238"></path><path d="M313.13,289.17c1.4,1.65,2.74,3.87,5.05,4.28s4.93-.36,7.06-1a.23.23,0,0,1,.25.36,8.7,8.7,0,0,1-8.49,2.71c-2.86-.78-4.06-3.43-4.51-6.16C312.42,289,312.93,288.93,313.13,289.17Z" style="fill:#263238"></path><path d="M302.87,268.37a21.52,21.52,0,0,0,15.81,6.93,27.22,27.22,0,0,0,7.69-1,7.93,7.93,0,0,0,1.43-.43c.44-.13.84-.26,1.32-.45a1.56,1.56,0,0,0,1-1.61v-.05a3.17,3.17,0,0,0-.18-.62v-.05l-.11-.55c-.72-4.81-2.47-12-2.47-12,1.9.57,11.54,3,11,.53-4.91-20.51-10.36-43.31-19.57-62.68a.59.59,0,0,0-1.11.36c3.93,19.89,11.34,39,15.61,58.88-3-.57-8-1.76-10.54-1.26-.65.31,3.64,13.86,3.79,16a1.5,1.5,0,0,1,0,.24c-7.87,2.45-14.37,1.09-23.14-2.93C302.83,267.44,302.41,267.94,302.87,268.37Z" style="fill:#263238"></path><path d="M348.51,167.24c-4-7.93-8.11-9.18-8.11-9.18s-1.23-9.83-11.73-21.24c-11-11.94-21.28-12.36-21.28-12.36s-5.79-5-17.49-7.78A65.84,65.84,0,0,0,278,115c-4.52-.24-17.92,1.31-21.84,3.51-4.51,2.55-9.9.7-14.86,1.26a33.06,33.06,0,0,0-13.1,4.34,35.67,35.67,0,0,0-9,7.43,55.32,55.32,0,0,0-4.12,5.68c-2.18,3.27-4.49,4.61-7.84,6.08-7.16,3.19-12.64,9.37-15.37,17.66a36.65,36.65,0,0,0-1.43,15c.58,6.3-5.62,10.11-7.36,15.83a21.43,21.43,0,0,0-.8,3.75,23.83,23.83,0,0,0,8.59,21.37c-7.43,7-8.76,20.49-3,30.24a20.72,20.72,0,0,0,4.48,5.33l.54.44a21.89,21.89,0,0,0,3.3,2.14,33.63,33.63,0,0,0,11.14,3.31,19.26,19.26,0,0,0,4.15.11c.44,0,.87,0,1.3,0a18.31,18.31,0,0,0,2.68-.29,18.7,18.7,0,0,0,3.59-1.05,21.9,21.9,0,0,0,8.48-6.16,24.67,24.67,0,0,0,3.83-6,25.09,25.09,0,0,0-.12-20.77V224s17.53,4.28,25.11-8.6c4.64-7.89,5.17-17.95,4-27.54,20,9.2,44-5.62,44.2-29.74,6,5.08,19.08,11.19,25.76,8.1,5.66,20.37,16.5,20,20.64,19.69a1.36,1.36,0,0,0,.29,0C351.7,185.78,353.09,176.34,348.51,167.24ZM230.38,241.36a24.29,24.29,0,0,1-5.16,8.5,10,10,0,0,1-.71.75c.21-.28.41-.56.6-.85a24.47,24.47,0,0,0,2.45-4.55,28.9,28.9,0,0,0,1.3-3.85,59.26,59.26,0,0,0,1.5-16A23.88,23.88,0,0,1,230.38,241.36Zm50.7-55c10.2-4.35,18.16-14.12,20.94-27.12C300.57,174.17,292.13,182.88,281.08,186.36Z" style="fill:#263238"></path><path d="M193.82,218c13.27,11.48,34.61,10.86,51,.72,10.75-6.65,16.34-21.69,26.51-34.66,16.74-21.36,56.33-26.36,45.73-59.44-9.43-29.4-58.48-32.89-100.74-8.09C179,138.47,164,192.25,193.82,218Z" style="fill:#fff"></path><path d="M315.65,237a23.7,23.7,0,0,0-.77-2.39h0c-.22-.58-.45-1.16-.71-1.72a29.36,29.36,0,0,0-37.05-15.49c-.67.25-1.32.52-2,.82a29.4,29.4,0,0,0-16.54,20.91,29.72,29.72,0,0,0-.52,3.9,29.37,29.37,0,0,0,39.57,29.35,28.55,28.55,0,0,0,6.05-3.11c.4-.26.79-.54,1.18-.83A29.41,29.41,0,0,0,315.65,237Zm-19.36,31.69A25.42,25.42,0,1,1,311.21,236,25.45,25.45,0,0,1,296.29,268.66Z" style="fill:#FFC727"></path><path d="M372.76,224.84a35,35,0,0,0-10.62-18.61,22.7,22.7,0,0,0-8.56-4.84,17.08,17.08,0,0,0-8.66-.28c-5.81,1.33-10.53,5.63-13.28,12.1a31.77,31.77,0,0,0-2.42,11h0a36.29,36.29,0,0,0,0,3.9,38.86,38.86,0,0,0,.54,4.5c.11.66.25,1.33.4,2a37.55,37.55,0,0,0,5.18,12.27c5.22,7.91,13,12.61,20.77,11.77a17.94,17.94,0,0,0,1.9-.32,16.58,16.58,0,0,0,5.31-2.26C371.65,250.71,375.79,238,372.76,224.84ZM363,251.49a13.3,13.3,0,0,1-5.8,3c-9.67,2.22-20-7.12-23.15-20.78a36.92,36.92,0,0,1-.77-4.92h0c-.05-.5-.08-1-.1-1.51h0c0-.84,0-1.67,0-2.5h0a28,28,0,0,1,2.12-10c.21-.5.44-1,.69-1.45,2.29-4.47,5.75-7.42,9.87-8.36a14.36,14.36,0,0,1,1.46-.25,14.19,14.19,0,0,1,7.55,1.36,20.08,20.08,0,0,1,4.75,3.13,31.14,31.14,0,0,1,9.38,16.54C371.36,236.3,368.74,246.44,363,251.49Z" style="fill:#FFC727"></path><path d="M314.68,238.11l-3.13-2.37c3.51-4.64,12.42-11.83,21.11-6L330.47,233C322.68,227.76,315,237.69,314.68,238.11Z" style="fill:#FFC727"></path><path d="M189.67,259.21l-3.58-1.61c.76-1.67,7.62-16.34,16.29-18.23,8.11-1.73,55-.34,57.28-.24l-.16,3.92c-15.13-.64-50-1.2-56.29.16C197.49,244.45,191.49,255.18,189.67,259.21Z" style="fill:#FFC727"></path><path d="M230.41,254.51s-23.93-28.48-37-19.68,6.76,51.39,23.47,56S238.1,280,238.1,280Z" style="fill:#ad6359"></path><path d="M199.38,246.9a.22.22,0,0,0,0,.44c11.75,3.58,18.65,13.57,23.8,24.1-3.74-3.9-8.54-5.79-13.81-1.28-.27.24.05.68.36.58,4.56-1.4,8-.89,11.45,2.55,2.46,2.44,4.27,5.63,6.13,8.53.62,1,2.41.26,1.92-.87l-.12-.25C228.06,266.21,215,247,199.38,246.9Z" style="fill:#263238"></path><path d="M262.88,113.93v9.77a1.87,1.87,0,0,1-1.86,1.87h0a1.94,1.94,0,0,1-1.48-.72,3.89,3.89,0,0,0-6.91,2.46,3.89,3.89,0,0,0,6.91,2.47,1.91,1.91,0,0,1,1.48-.72h0a1.86,1.86,0,0,1,1.86,1.86v9.77h-9.77a1.87,1.87,0,0,0-1.86,1.87h0A1.91,1.91,0,0,0,252,144a3.89,3.89,0,1,1-4.94,0,1.92,1.92,0,0,0,.73-1.48h0a1.87,1.87,0,0,0-1.87-1.87h-9.77v-9.77a1.87,1.87,0,0,1,1.87-1.86h0a1.89,1.89,0,0,1,1.47.72,3.9,3.9,0,1,0,0-4.93,1.92,1.92,0,0,1-1.47.72h0a1.87,1.87,0,0,1-1.87-1.87v-9.77h9.77a1.87,1.87,0,0,0,1.87-1.87h0a1.92,1.92,0,0,0-.73-1.47,3.9,3.9,0,1,1,4.94,0,1.91,1.91,0,0,0-.72,1.47h0a1.86,1.86,0,0,0,1.86,1.87Z" style="fill:#263238"></path><path d="M262.88,113.93h-9.77a1.87,1.87,0,0,1-1.86-1.87h0a1.88,1.88,0,0,1,.72-1.47,3.89,3.89,0,1,0-4.94,0,1.89,1.89,0,0,1,.73,1.47h0a1.87,1.87,0,0,1-1.87,1.87h-9.77v-9.77a1.87,1.87,0,0,0-1.87-1.87h0a1.91,1.91,0,0,0-1.47.72,3.9,3.9,0,1,1,0-4.93,1.88,1.88,0,0,0,1.47.72h0a1.87,1.87,0,0,0,1.87-1.86V87.16h9.77A1.87,1.87,0,0,1,247.76,89h0a1.92,1.92,0,0,1-.73,1.48,3.9,3.9,0,1,0,4.94,0,1.91,1.91,0,0,1-.72-1.48h0a1.87,1.87,0,0,1,1.86-1.87h9.77v9.78a1.87,1.87,0,0,0,1.87,1.86h0a1.88,1.88,0,0,0,1.47-.72,3.9,3.9,0,1,1,0,4.93,1.91,1.91,0,0,0-1.47-.72h0a1.87,1.87,0,0,0-1.87,1.87Z" style="fill:#fff"></path><path d="M156.1,161.12h9.77a1.87,1.87,0,0,1,1.87,1.87h0a1.94,1.94,0,0,1-.72,1.48,3.89,3.89,0,0,0,2.46,6.91,3.89,3.89,0,0,0,2.47-6.91,1.91,1.91,0,0,1-.72-1.48h0a1.87,1.87,0,0,1,1.86-1.87h9.78v9.78a1.86,1.86,0,0,0,1.86,1.86h0a1.91,1.91,0,0,0,1.48-.72,3.9,3.9,0,1,1,0,4.93,1.94,1.94,0,0,0-1.48-.72h0a1.87,1.87,0,0,0-1.86,1.87v9.77h-9.78a1.87,1.87,0,0,1-1.86-1.87h0a1.88,1.88,0,0,1,.72-1.47,3.9,3.9,0,1,0-4.93,0,1.91,1.91,0,0,1,.72,1.47h0a1.87,1.87,0,0,1-1.87,1.87H156.1v-9.77a1.87,1.87,0,0,0-1.87-1.87h0a1.94,1.94,0,0,0-1.47.72,3.89,3.89,0,0,1-6.91-2.46,3.89,3.89,0,0,1,6.91-2.47,1.91,1.91,0,0,0,1.47.72h0a1.86,1.86,0,0,0,1.87-1.86Z" style="fill:#fff"></path></g><g id="freepik--Table--inject-4"><path d="M36.71,453.51c136.65-.61,289.93-.61,426.58,0-136.65.62-289.93.62-426.58,0Z" style="fill:#263238"></path></g><g id="freepik--light-bulb--inject-4"><path d="M228.05,119.23c9.92,18.5,1.12,29.3,2.46,35.14a96.85,96.85,0,0,0,3.81,10.34l-17.87,12.46a92,92,0,0,0-8.38-7.15c-5-3.29-18.19,1.23-32.1-14.48-9.15-10.32-13.07-33.95,5.84-47.13S221.52,107.09,228.05,119.23Z" style="fill:#FFC727"></path><rect x="208.9" y="145.18" width="0.72" height="35.24" transform="translate(-53.57 197.69) rotate(-45.44)" style="fill:#fff"></rect><rect x="222.99" y="135.36" width="0.72" height="35.24" transform="translate(-43.16 105.42) rotate(-24.29)" style="fill:#fff"></rect><path d="M212.93,153.05c-1.9,1.32-4.71.29-6.22-.44l-.33-.16a2.59,2.59,0,0,1-.92,2c-2.61,1.82-7.47-2.89-7.67-3.09l.25-.26c.05,0,4.85,4.71,7.22,3.06h0a2.38,2.38,0,0,0,.78-1.87,14.86,14.86,0,0,1-4.86-4.12c-1.06-1.51-1.11-2.72-.13-3.41h0a1.88,1.88,0,0,1,2-.18c1.75.82,3.16,4.09,3.37,6.63a6.54,6.54,0,0,1,0,.87c2.32,1.22,4.8,1.76,6.31.7,1.14-.8,1.66-2.48,1.47-4.74,0-.21,0-.42-.07-.64a8.84,8.84,0,0,1-5-3.61c-1.35-1.94-1.47-3.64-.32-4.44a1.46,1.46,0,0,1,1.51-.09c1.74.82,3.58,4.41,4.11,7.85a3.26,3.26,0,0,0,2.45-.51h0c2-1.42-.21-7.91-.24-8l.34-.12c.1.28,2.36,6.81.11,8.38a3.65,3.65,0,0,1-2.61.58l.06.54c.14,1.69,0,3.95-1.62,5.06ZM209,139.62c-1.16.81-.55,2.57.41,3.94a8.88,8.88,0,0,0,4.62,3.46c-.53-3.26-2.28-6.7-3.88-7.45A1.06,1.06,0,0,0,209,139.62ZM201.26,145h0c-1.07.74-.33,2.14.21,2.91a14.46,14.46,0,0,0,4.58,3.92c0-.2,0-.42,0-.65-.21-2.39-1.56-5.58-3.17-6.33A1.5,1.5,0,0,0,201.26,145Z" style="fill:#fff"></path><rect x="212.93" y="169.7" width="26.87" height="5.25" transform="translate(-57.88 160.39) rotate(-34.88)" style="fill:#dbdbdb"></rect><rect x="216.41" y="174.71" width="26.87" height="5.25" transform="translate(-60.12 163.29) rotate(-34.88)" style="fill:#dbdbdb"></rect><rect x="219.9" y="179.71" width="26.87" height="5.25" transform="matrix(0.82, -0.57, 0.57, 0.82, -62.35, 166.18)" style="fill:#dbdbdb"></rect><path d="M176.5,147c-5.74-9-6.22-22.95,2.48-30.27-6,9.07-5.19,20.21-2.48,30.27Z" style="fill:#fff"></path></g><g id="freepik--Gears--inject-4"><path d="M275.35,167.42a12.83,12.83,0,0,0,.22-4.89l3-1.29-1.4-4.16-3.25.83a12.45,12.45,0,0,0-3.28-3.71l1.2-3-3.94-2-1.63,2.76a12.8,12.8,0,0,0-5.1-.36L260,148.93l-4.15,1.4.74,2.91a12.82,12.82,0,0,0-4,3.48L250,155.67l-1.94,3.93,2.44,1.46a13,13,0,0,0-.27,5.37l-2.53,1.08,1.39,4.15,2.8-.71a12.7,12.7,0,0,0,3.61,3.92l-1.07,2.64,3.94,1.94,1.54-2.59a12.89,12.89,0,0,0,5.17.15l1.18,2.8,4.16-1.4-.79-3.12a13,13,0,0,0,3.65-3.42l3,1.2,1.94-3.92Zm-13.46,5.82a9,9,0,1,1,10.14-7.6A9,9,0,0,1,261.89,173.24Z" style="fill:#dbdbdb"></path><path d="M268.83,169.39l-1.65,1.25-3.07-4L263,165.12a2.42,2.42,0,0,0,.64-.37,2.59,2.59,0,0,0,.85-1.1l1.19,1.57Z" style="fill:#dbdbdb"></path><path d="M265.57,159.86a4.51,4.51,0,1,0-1.46,6.74,4.58,4.58,0,0,0,1.56-1.38A4.5,4.5,0,0,0,265.57,159.86Zm-1.94,4.89a2.42,2.42,0,0,1-.64.37,2.7,2.7,0,1,1,1.49-1.47A2.59,2.59,0,0,1,263.63,164.75Z" style="fill:#dbdbdb"></path><path d="M200.76,195.39a8.83,8.83,0,0,0,1.54-3l2.29.05.3-3.05-2.29-.4a8.92,8.92,0,0,0-1-3.3l1.61-1.53-1.94-2.37L199.42,183a9,9,0,0,0-3.13-1.69l0-2.09-3-.3-.37,2.06a8.82,8.82,0,0,0-3.52,1.07l-1.36-1.42-2.36,1.94,1.13,1.63a9.11,9.11,0,0,0-1.71,3.33l-1.92,0-.3,3,2,.35a8.76,8.76,0,0,0,1.16,3.53l-1.43,1.36,1.94,2.37,1.72-1.2a9.05,9.05,0,0,0,3.24,1.58l-.05,2.11,3,.31.39-2.21a9,9,0,0,0,3.3-1.12l1.56,1.62,2.35-1.94Zm-10.22-.17a6.24,6.24,0,1,1,8.62-1.91A6.25,6.25,0,0,1,190.54,195.22Z" style="fill:#dbdbdb"></path><path d="M246.3,209.15a8.89,8.89,0,0,0,2.89-1.81l1.94,1.22L253,206.1l-1.76-1.53a8.78,8.78,0,0,0,.82-3.35l2.17-.48-.44-3-2.23.16a8.83,8.83,0,0,0-1.82-3.06l1.11-1.77-2.44-1.82L247,192.79a9,9,0,0,0-3.57-.89L243,190l-3,.44.13,2a8.94,8.94,0,0,0-3.18,2l-1.62-1-1.83,2.45,1.52,1.32a8.84,8.84,0,0,0-.82,3.62l-1.93.43.45,3,2.09-.15a9,9,0,0,0,2,3l-1.13,1.79,2.45,1.83,1.47-1.69a9,9,0,0,0,3.4.73l.5,2.19,3-.44Zm-8.67-5.4a6.25,6.25,0,1,1,8.38,2.79A6.24,6.24,0,0,1,237.63,203.75Z" style="fill:#FFC727"></path><path d="M228.41,207a12.85,12.85,0,0,0-1.38-4.7l2.45-2.2-2.68-3.48-2.8,1.83a12.66,12.66,0,0,0-4.31-2.44l.18-3.19-4.36-.57-.65,3.14a13,13,0,0,0-4.94,1.31l-2-2.23-3.47,2.67,1.64,2.51a13,13,0,0,0-2.63,4.58l-2.81-.14-.56,4.34,2.78.59a12.79,12.79,0,0,0,1.48,5.16L202.29,216l2.67,3.48,2.41-1.58a12.78,12.78,0,0,0,4.69,2.54l-.16,2.84,4.36.57.62-3a12.64,12.64,0,0,0,4.93-1.53l2,2.26,3.49-2.67-1.77-2.7a12.58,12.58,0,0,0,2.35-4.41l3.22.17.56-4.34Zm-10.85,9.87a9,9,0,1,1,7.13-10.48A9,9,0,0,1,217.56,216.83Z" style="fill:#37474f"></path><g style="opacity:0.6000000000000001"><path d="M220.15,205.12a1.87,1.87,0,1,1-1.87-1.87A1.87,1.87,0,0,1,220.15,205.12Z" style="fill:#455a64"></path><path d="M221.51,210.28V211h-6.46v-.68a3.23,3.23,0,1,1,6.46,0Z" style="fill:#455a64"></path></g><path d="M215.36,206.25a1.87,1.87,0,1,1-1.87-1.87A1.87,1.87,0,0,1,215.36,206.25Z" style="fill:#37474f"></path><path d="M216.72,211.41v.68h-6.47v-.68a3.24,3.24,0,0,1,6.47,0Z" style="fill:#37474f"></path><path d="M315.59,137.53l.49-3.74-4.38-1a20.69,20.69,0,0,0-.81-6l3.93-2.12-1.44-3.49-4.3,1.32a20.19,20.19,0,0,0-3.72-4.81l2.36-3.81-3-2.29-3.08,3.28a19.51,19.51,0,0,0-5.61-2.3l.13-4.49-3.74-.49-1,4.38a20.41,20.41,0,0,0-6,.82l-2.12-3.94-3.48,1.44,1.3,4.3a20.6,20.6,0,0,0-4.8,3.72l-3.81-2.35-2.3,3,3.29,3.06a19.8,19.8,0,0,0-2.3,5.62l-4.48-.12-.49,3.73,4.38,1a20.45,20.45,0,0,0,.81,6l-3.95,2.12,1.46,3.48,4.3-1.3a20.79,20.79,0,0,0,3.7,4.8l-2.34,3.8,3,2.3,3.05-3.28a20,20,0,0,0,5.64,2.3l-.14,4.47,3.73.49,1-4.37a20.74,20.74,0,0,0,6-.82l2.12,3.94,3.49-1.45-1.32-4.3a19.94,19.94,0,0,0,4.81-3.72l3.81,2.37,2.28-3L308.81,143a20.39,20.39,0,0,0,2.3-5.63Zm-24.45,8.23a13.27,13.27,0,1,1,13.26-13.27A13.27,13.27,0,0,1,291.14,145.76Z" style="fill:#FFC727"></path><path d="M293.85,125.41a2.72,2.72,0,1,1-2.71-2.71A2.71,2.71,0,0,1,293.85,125.41Z" style="fill:#FFC727"></path><rect x="288.26" y="127.71" width="5.75" height="0.83" style="fill:#FFC727"></rect><rect x="288.26" y="127.71" width="5.75" height="0.83" style="opacity:0.1"></rect><rect x="285.31" y="139.13" width="11.66" height="0.83" style="fill:#FFC727"></rect><rect x="285.31" y="139.13" width="11.66" height="0.83" style="opacity:0.1"></rect><rect x="285.31" y="141.46" width="11.66" height="0.83" style="fill:#FFC727"></rect><rect x="285.31" y="141.46" width="11.66" height="0.83" style="opacity:0.1"></rect><rect x="285.74" y="139.96" width="10.79" height="1.5" style="fill:#FFC727"></rect><rect x="288.79" y="128.54" width="4.7" height="0.83" style="fill:#FFC727"></rect><path d="M295.9,139.13h-9.53a10.43,10.43,0,0,0,2.63-4.78c.38-2.19.56-5,.56-5h3.15s.19,2.79.57,5A10.35,10.35,0,0,0,295.9,139.13Z" style="fill:#FFC727"></path></g></svg>