<?xml version="1.0" encoding="utf-8"?>
<!-- Generator: Adobe Illustrator 27.5.0, SVG Export Plug-In . SVG Version: 6.00 Build 0)  -->
<svg version="1.1" id="Layer_1" xmlns="http://www.w3.org/2000/svg" xmlns:xlink="http://www.w3.org/1999/xlink" x="0px" y="0px"
	 viewBox="0 0 2753 2000" style="enable-background:new 0 0 2753 2000;" xml:space="preserve">
<rect style="fill:#FFFFFF;" width="2753" height="2000"/>
<g>
	<path style="opacity:0.1;fill:#9BC1F9;" d="M280.763,1870.96H2558.23c188.772-157.47,91.627-631.313-66.047-727.37
		c-169.725-103.397,99.784-460.991-161.667-577.058c-170.706-75.783-442.207,6.816-405.688-195.94
		c50.64-281.16-541.271-353.196-977.347-277.408C476.03,175.121,906.56,577.975,388.102,659.14
		c-266.595,41.736-215.079,398.816-190.221,472.607c21.651,64.268,164.888,166.208-34.18,306.59
		C-128.205,1644.185,273.882,1867.171,280.763,1870.96z"/>
	<g>
		<g>
			<path style="fill:#256653;" d="M2303.744,668.277c0,0-37.283,81.166-62.373,115.452c-25.089,34.286-48.986,67.072-69.006,162.232
				c-20.02,95.16-16.586,104.724-22.063,129.303c-5.479,24.579-41.136,124.159-41.342,142.421
				c-0.206,18.26-72.061,122.21-90.466,170.863c-18.405,48.652-51.01,118.15-49.177,153.535l8.189-2.079
				c0,0,6.676-82.505,63.478-165.884c56.801-83.379,48.678-99.122,113.183-141.956c64.506-42.834,106.167-161.157,106.167-161.157
				s65.617-128.52,62.564-195.331S2337.264,748.609,2303.744,668.277z"/>
			<path style="fill:#256653;" d="M2216.434,543.442c0,0-2.17,53.316-19.369,84.99c-17.198,31.673-32.013,50.91-35.135,85.178
				c-3.123,34.268-13.924,122.614-61.88,165.745c-47.956,43.13-54.082,172.365-90.585,211.458
				c-36.505,39.094-41.272,67.192-34.534,134.243c6.738,67.052,29.643,159.972-23.313,281.261l-11.969-30.167
				c0,0,37.885-99.783,28.714-158.209s-41.085-146.708-29.404-189.05s-31.754-50.611-5.599-114.651
				c26.154-64.039,15.412-86.289,51.017-141.66c0,0,3.651-2.592,13.014-49.439c9.362-46.847,84.829-132.711,119.606-162.013
				C2151.774,631.828,2201.895,584.869,2216.434,543.442z"/>
			<path style="fill:#3C8F7C;" d="M2074.778,807.425c0,0-41.647,71.304-42.24,117.198c-0.593,45.894,4.379,83.224-16.691,146.07
				c-21.07,62.848,20.753,102.576,8.698,137.275c-12.055,34.698-12.986,75.781-12.62,106.935
				c0.367,31.153-47.704,134.257-55.021,186.461s2.033,52.378,2.033,52.378s7.969-68.924,19.03-91.715
				c11.062-22.79,44.693-101.364,52.55-131.765c7.855-30.4,29.153-49.912,47.524-101.397
				c18.372-51.484,44.487-94.847,42.493-167.901C2118.542,987.908,2147.941,910.8,2074.778,807.425z"/>
			<path style="fill:#3C8F7C;" d="M1986.606,1505.902c0,0,19.423-90.492,101.317-99.529c81.896-9.037,130.003,7.155,187.857-58.957
				s91.459-171.028,109.94-189.091c0,0-29.067-14.953-77.396,30.229c-48.329,45.181-82.272,79.452-110.251,105.759
				s-50.699,9.154-80.236,26.497c-24.755,14.535-56.768,56.539-70.866,78.542c-4.579,7.147-10.01,13.705-16.247,19.462
				c-5.675,5.236-12.433,11.653-16.768,16.379c-8.67,9.449-33.682,71.033-33.682,71.033L1986.606,1505.902z"/>
			<path style="fill:#3C8F7C;" d="M1957.743,1489.936c0,0,28.863-110.667,9.53-164.823c-19.332-54.157-79.854-94.232-77.422-128.251
				c2.433-34.02,41.288-125.967,9.607-194.424c0,0-12.035,61.063-23.909,74.646c-11.875,13.582-93.373,68.36-78.925,140.702
				c14.448,72.343,93.675,89.255,113.188,110.552c19.512,21.297,45.854,21.271,46.02,35.432c0.167,14.16,5.306,65.651-3.443,116.457
				L1957.743,1489.936z"/>
			<path style="fill:#327F6B;" d="M1989.302,1415.875l40.546-116.799c0,0,23.819-93.943,37.626-172.283s7.305-319.368,7.305-319.368
				s-41.647,71.304-42.24,117.198c-0.593,45.894,4.379,83.225-16.691,146.07c-21.07,62.848,20.753,102.576,8.698,137.275
				c-12.055,34.698-12.987,75.781-12.62,106.935s-47.705,134.257-55.021,186.461c-4.008,28.598-3.013,41.564-1.295,47.459
				C1949.106,1503.163,1989.302,1415.875,1989.302,1415.875z"/>
			<path style="fill:#327F6B;" d="M2189.024,1346.298c-36.171,7.225-68.513,4.759-111.452,36.72
				c-42.938,31.96-68.192,66.092-68.192,66.092s-19.303,34.495-27.281,52.68c-1.15,2.779-1.823,4.437-1.823,4.437l6.331-0.323
				c0,0,19.423-90.492,101.317-99.529c81.896-9.037,130.003,7.155,187.857-58.957s91.459-171.028,109.94-189.091
				c0,0-61.536,47.871-99.56,90.24C2248.139,1290.934,2225.196,1339.074,2189.024,1346.298z"/>
			<path style="fill:#327F6B;" d="M1875.55,1077.084c-11.875,13.582-93.373,68.36-78.925,140.703
				c14.448,72.342,93.675,89.254,113.188,110.551c19.512,21.297,45.854,21.271,46.02,35.432c0.167,14.16,5.306,65.651-3.443,116.456
				l2.339,4.241c4.274-19.829,10.207-50.023,12.146-72.954c3.149-37.237-2.887-52.65-14.854-82.817
				c-11.969-30.167-86.338-91.606-104.975-123.909c-18.635-32.303,35.935-86.3,48.046-112.37
				c12.112-26.069,4.368-89.979,4.368-89.979S1887.424,1063.5,1875.55,1077.084z"/>
		</g>
		<g>
			<path style="fill:#50BFA5;" d="M2068.877,1436.47l12.731-30.767c9.878-22.629,35.154-33.435,56.456-24.136l0,0
				c53.681,23.434,77.019,88.657,52.126,145.681l-18.199,41.69c-7.973,18.265-5.196,38.357,5.555,52.524
				c9.764,12.866,11.358,30.757,4.589,46.267l-9.595,21.979c-10.388,23.796-30.598,41.419-54.569,48.688
				c-14.02,4.25-26.4,14.771-32.947,29.771l-13.586,31.12c-15.019,34.406-53.45,50.836-85.838,36.698l-18.479-8.066
				c-32.389-14.139-46.47-53.492-31.45-87.897l0,0c24.287-41.139,22.351-71.844,13.744-92.669
				c-12.654-30.621-12.508-65.854,1.182-97.213l1.92-4.398c14.449-33.1,42.35-57.813,75.577-68.395
				C2042.762,1472.676,2058.052,1461.268,2068.877,1436.47z"/>
			<path style="fill:#96D9C9;" d="M1839.656,1870.96c26.051-33.775,168.9-214.724,262.045-244.877
				c102.814-33.284,5.912,98.913,5.912,98.913s182.391-199.439,249.322-181.46c61.354,16.481,0,140.103,0,140.103
				s69.102-68.454,152.902-68.454c81.557,0-56.979,242.78-64.453,255.775H1839.656z"/>
			<g>
				<g>
					<path style="fill:#3C8F7C;" d="M2389.32,1479.524c-74.52,116.385-128.907,245.673-160.004,383.024l-5.108-1.369
						c30.966-134.476,84.989-263.537,159.386-379.795c17.29-27.02,35.961-59.072,68.334-69.612c0.625-0.204,0.861,0.745,0.266,0.97
						C2422.624,1423.884,2405.497,1454.259,2389.32,1479.524z"/>
				</g>
				<g>
					<path style="fill:#3C8F7C;" d="M2247.282,1867.365c83.273-113.24,184.513-217.906,304.892-308.924
						c1.201-0.908,2.824,1.187,1.614,2.116c-114.171,87.761-215.18,191.395-300.175,308.506L2247.282,1867.365z"/>
				</g>
				<path style="fill:#3C8F7C;" d="M2396.131,1407.348c1.918,2.82,9.262,10.179,11.419,19.846c2.897,9.171,0.609,20.65,0.364,20.249
					c-0.554,0.228,8.496-7.424,11.324-19.595c3.66-11.674,1.098-27.865-3.455-33.23c-7.863-12.127-21.602-13.356-24.27-7.476
					C2388.682,1392.982,2392.273,1400.93,2396.131,1407.348z"/>
				<path style="fill:#3C8F7C;" d="M2413.959,1511.233c-2.783-1.974-9.995-9.46-19.618-11.809
					c-9.111-3.077-20.635-1.017-20.237-0.763c-0.238,0.549,7.59-8.349,19.814-10.936c11.743-3.43,27.881-0.549,33.155,4.109
					c11.97,8.101,12.928,21.861,6.996,24.412C2428.174,1518.964,2420.299,1515.217,2413.959,1511.233z"/>
				<path style="fill:#3C8F7C;" d="M2387.055,1556.765c-2.783-1.974-9.994-9.46-19.617-11.808
					c-9.112-3.078-20.635-1.018-20.237-0.764c-0.239,0.549,7.589-8.349,19.813-10.936c11.743-3.43,27.882-0.549,33.156,4.109
					c11.969,8.101,12.928,21.861,6.995,24.412C2401.27,1564.495,2393.395,1560.748,2387.055,1556.765z"/>
				<path style="fill:#3C8F7C;" d="M2483.02,1662.375c-2.783-1.975-9.994-9.461-19.617-11.809
					c-9.112-3.078-20.635-1.017-20.237-0.763c-0.239,0.548,7.59-8.35,19.813-10.937c11.743-3.43,27.882-0.549,33.156,4.109
					c11.97,8.102,12.928,21.861,6.995,24.413C2497.234,1670.105,2489.359,1666.357,2483.02,1662.375z"/>
				<path style="fill:#3C8F7C;" d="M2532.048,1619.182c-2.782-1.974-9.995-9.461-19.617-11.809
					c-9.112-3.078-20.635-1.017-20.237-0.763c-0.239,0.549,7.59-8.349,19.813-10.937c11.743-3.429,27.882-0.548,33.156,4.109
					c11.97,8.102,12.927,21.861,6.995,24.413C2546.264,1626.912,2538.389,1623.165,2532.048,1619.182z"/>
				<path style="fill:#3C8F7C;" d="M2358.486,1458.868c2.34,2.482,10.751,8.591,14.405,17.798
					c4.308,8.599,3.858,20.296,3.552,19.938c-0.51,0.313,7.221-8.671,8.094-21.135c1.774-12.104-3.309-27.69-8.65-32.271
					c-9.678-10.735-23.438-9.783-25.146-3.556C2348.866,1445.856,2353.666,1453.139,2358.486,1458.868z"/>
				<path style="fill:#3C8F7C;" d="M2318.925,1510.504c3.329,1.766,14.961,4.968,20.812,13.672
					c6.621,7.746,7.462,20.994,7.021,20.726c-0.622,0.568,8.292-12.78,7.906-27.067c0.824-14.271-7.651-29.481-15.123-32.297
					c-13.832-7.822-31.527-0.846-32.98,6.839C2304.889,1500.117,2311.987,1506.182,2318.925,1510.504z"/>
				<path style="fill:#3C8F7C;" d="M2277.285,1588.711c3.58,1.181,15.584,2.381,22.814,9.978c7.83,6.522,10.888,19.44,10.408,19.249
					c-0.519,0.665,6.023-13.992,3.241-28.011c-1.588-14.207-12.5-27.774-20.339-29.294c-14.951-5.385-31.222,4.469-31.361,12.288
					C2261.703,1580.833,2269.72,1585.617,2277.285,1588.711z"/>
				<path style="fill:#3C8F7C;" d="M2400.499,1643.188c2.607,1.627,11.887,4.894,16.15,12.307
					c4.944,6.678,4.875,17.502,4.532,17.259c-0.539,0.427,7.472-9.924,7.972-21.566c1.482-11.563-4.545-24.418-10.463-27.133
					c-10.806-7.151-25.598-2.483-27.217,3.685C2389.673,1633.941,2395.102,1639.278,2400.499,1643.188z"/>
				<path style="fill:#3C8F7C;" d="M2464.646,1425.658c-1.56-1.289-5.498-6.034-11.088-7.844c-5.256-2.22-12.162-1.504-11.938-1.337
					c-0.165,0.314,4.854-4.606,12.2-5.603c7.097-1.515,16.517,0.896,19.434,3.882c6.727,5.316,6.69,13.498,3.069,14.748
					C2472.717,1430.854,2468.223,1428.292,2464.646,1425.658z"/>
				<path style="fill:#3C8F7C;" d="M2449.706,1392.424c0.069,2.022,1.423,8.038-0.557,13.57c-1.45,5.518-6.233,10.551-6.229,10.271
					c-0.35-0.061,6.612-1.033,11.885-6.242c5.532-4.696,9.375-13.629,8.79-17.762c-0.104-8.572-6.605-13.54-9.806-11.435
					C2450.519,1382.859,2449.804,1387.983,2449.706,1392.424z"/>
				<path style="fill:#3C8F7C;" d="M2567.355,1575.185c-1.56-1.289-5.498-6.034-11.088-7.844c-5.256-2.22-12.162-1.505-11.938-1.337
					c-0.165,0.314,4.855-4.606,12.2-5.603c7.097-1.515,16.518,0.896,19.434,3.882c6.726,5.316,6.69,13.498,3.07,14.748
					C2575.426,1580.38,2570.932,1577.818,2567.355,1575.185z"/>
				<path style="fill:#3C8F7C;" d="M2549.332,1541.664c0.234,2.01,2.076,7.895,0.557,13.57c-0.994,5.618-5.348,11.026-5.367,10.747
					c-0.354-0.031,6.506-1.571,11.334-7.194c5.129-5.134,8.227-14.352,7.306-18.422c-0.806-8.535-7.692-12.953-10.71-10.594
					C2549.359,1532.065,2549.065,1537.23,2549.332,1541.664z"/>
			</g>
			<g>
				<g>
					<path style="fill:#3C8F7C;" d="M2536.789,1758.275c-76.093,8.341-146.963,41.93-215.186,74.684
						c-46.006,22.088-43.686,28.38-53.058,31.669c-1.519,0.532-3.036-1.116-2.298-2.579c3.606-7.141,13.058-11.971,19.634-16.078
						c7.655-4.78,15.653-9.006,23.769-12.946c17.365-8.431,35.183-16.018,52.884-23.708c36.011-15.646,72.604-30.363,110.647-40.325
						c20.855-5.461,42.078-9.399,63.557-11.335C2537.139,1757.62,2537.186,1758.231,2536.789,1758.275L2536.789,1758.275z"/>
				</g>
				<path style="fill:#3C8F7C;" d="M2468.207,1734.685c0.496,3.121,3.748,12.186,1.742,21.14c-1.189,8.83-7.637,17.549-7.684,17.115
					c-0.555-0.027,10.05-2.87,17.222-11.956c7.674-8.34,11.914-22.922,10.215-29.215c-1.806-13.267-12.837-19.718-17.393-15.841
					C2467.632,1719.706,2467.506,1727.784,2468.207,1734.685z"/>
				<path style="fill:#3C8F7C;" d="M2401.172,1758.687c0.495,3.122,3.747,12.186,1.741,21.14c-1.189,8.83-7.636,17.55-7.684,17.115
					c-0.554-0.027,10.051-2.87,17.223-11.955c7.673-8.341,11.914-22.923,10.214-29.216c-1.806-13.267-12.836-19.717-17.393-15.841
					C2400.596,1743.708,2400.471,1751.786,2401.172,1758.687z"/>
				<path style="fill:#3C8F7C;" d="M2333.058,1789.048c0.495,3.121,3.747,12.186,1.741,21.14c-1.189,8.83-7.637,17.549-7.684,17.115
					c-0.555-0.027,10.051-2.87,17.223-11.956c7.673-8.34,11.914-22.922,10.215-29.216c-1.807-13.266-12.838-19.717-17.394-15.84
					C2332.481,1774.068,2332.356,1782.146,2333.058,1789.048z"/>
				<path style="fill:#3C8F7C;" d="M2488.22,1797.316c-1.377-2.576-4.04-11.071-10.515-16.55
					c-5.805-5.843-15.422-8.671-15.215-8.324c-0.393,0.329,9.009-3.494,19.364-0.802c10.31,1.863,21.573,10.243,23.833,15.829
					c6.072,10.784,1.544,21.694-3.977,21.38C2496.155,1808.676,2491.555,1802.793,2488.22,1797.316z"/>
				<path style="fill:#3C8F7C;" d="M2418.492,1821.997c-1.377-2.576-4.04-11.071-10.516-16.55
					c-5.805-5.844-15.422-8.671-15.214-8.324c-0.394,0.329,9.008-3.494,19.364-0.802c10.309,1.863,21.572,10.242,23.832,15.828
					c6.073,10.785,1.545,21.694-3.977,21.381C2426.428,1833.356,2421.826,1827.474,2418.492,1821.997z"/>
				<path style="fill:#3C8F7C;" d="M2541.323,1771.91c-1.205-1.436-3.999-6.418-8.789-9.003c-4.417-2.902-10.829-3.407-10.653-3.217
					c-0.203,0.259,5.195-3.384,12.054-3.062c6.72-0.192,14.899,3.582,17.056,6.791c5.238,5.97,3.836,13.418,0.328,13.95
					C2547.807,1777.995,2544.141,1774.909,2541.323,1771.91z"/>
				<path style="fill:#3C8F7C;" d="M2533.276,1739.129c-0.276,1.854-0.05,7.562-2.78,12.271c-2.245,4.784-7.445,8.569-7.396,8.315
					c-0.309-0.113,6.198,0.166,11.874-3.697c5.827-3.353,10.823-10.848,10.982-14.711c1.341-7.828-3.751-13.442-7.02-12.061
					C2535.618,1730.551,2534.108,1735.099,2533.276,1739.129z"/>
			</g>
		</g>
	</g>
	<g>
		<g>
			<path style="fill:#3C8F7C;" d="M573.497,1293.04c-89.413-79.726-135.388-194.224-158.211-276.237
				c-24.777-89.034-28.386-160.091-28.42-160.798l-4.86-0.3c0.034,0.713,3.659,72.293,28.586,161.922
				c23.035,82.824,69.494,198.496,160.015,279.209L573.497,1293.04z"/>
		</g>
		<g>
			<path style="fill:#3C8F7C;" d="M397.05,835.392c4.407,20.5,0.718,39.865-8.678,53.848
				c-14.733-10.845-26.319-28.224-30.726-48.724c-4.406-20.5-0.718-39.865,8.679-53.848
				C381.058,797.513,392.644,814.892,397.05,835.392z"/>
		</g>
		<g>
			<path style="fill:#3C8F7C;" d="M369.626,893.768c15.405,14.333,24.41,33.159,26.155,51.287
				c-16.912,0.77-35.517-6.093-50.922-20.426c-15.405-14.333-24.41-33.159-26.155-51.286
				C335.615,872.572,354.221,879.435,369.626,893.768z"/>
		</g>
		<g>
			<path style="fill:#3C8F7C;" d="M362.398,955.101c19.145,6.006,34.845,19.339,44.137,35.534
				c-13.894,8.921-32.506,11.488-51.651,5.482c-19.145-6.006-34.845-19.339-44.137-35.534
				C324.641,951.662,343.253,949.094,362.398,955.101z"/>
		</g>
		<g>
			<path style="fill:#3C8F7C;" d="M391.882,1028.883c15.165,4.783,27.289,17.017,34.157,32.467
				c-11.497,9.658-26.552,13.319-41.717,8.536c-15.165-4.782-27.29-17.016-34.158-32.466
				C361.661,1027.762,376.717,1024.101,391.882,1028.883z"/>
		</g>
		<g>
			<path style="fill:#3C8F7C;" d="M417.776,923.579c11.935-12.015,27.741-17.136,43.042-15.494
				c0.847,16.194-4.737,32.606-16.671,44.62c-11.934,12.015-27.741,17.136-43.042,15.494
				C400.257,952.006,405.841,935.593,417.776,923.579z"/>
		</g>
		<g>
			<path style="fill:#3C8F7C;" d="M431.609,976.456c11.935-12.015,27.741-17.136,43.042-15.494
				c0.847,16.193-4.737,32.605-16.671,44.62c-11.934,12.015-27.741,17.136-43.042,15.493
				C414.091,1004.882,419.675,988.47,431.609,976.456z"/>
		</g>
	</g>
	<g>
		<g>
			<path style="fill:#50BFA5;" d="M519.611,1401.164c-82.568-12.035-153.229-60.952-197.967-99.869
				c-48.567-42.248-77.931-82.169-78.222-82.567l-2.941,1.69c0.293,0.401,29.867,40.62,78.751,83.156
				c45.172,39.308,116.564,88.721,200.156,100.904L519.611,1401.164z"/>
		</g>
		<g>
			<path style="fill:#50BFA5;" d="M241.433,1202.838c10.428,10.227,15.714,22.898,15.618,34.633
				c-12.726-0.651-26.129-6.308-36.558-16.534c-10.427-10.226-15.714-22.898-15.618-34.632
				C217.602,1186.955,231.005,1192.611,241.433,1202.838z"/>
		</g>
		<g>
			<path style="fill:#50BFA5;" d="M247.891,1247.296c14.455,2.42,26.913,9.908,34.884,19.776
				c-9.535,6.937-22.984,10.087-37.439,7.666c-14.455-2.421-26.913-9.909-34.884-19.776
				C219.987,1248.025,233.436,1244.875,247.891,1247.296z"/>
		</g>
		<g>
			<path style="fill:#50BFA5;" d="M267.224,1285.722c13.434-3.854,27.676-2.129,39.292,3.72
				c-4.653,10.518-14.488,19.152-27.921,23.007s-27.676,2.129-39.292-3.72C243.956,1298.211,253.79,1289.576,267.224,1285.722z"/>
		</g>
		<g>
			<path style="fill:#50BFA5;" d="M312.675,1317.299c10.651-3.039,22.393-0.58,32.314,5.766
				c-2.978,10.025-10.324,17.931-20.975,20.97c-10.65,3.039-22.393,0.58-32.314-5.766
				C294.678,1328.242,302.024,1320.337,312.675,1317.299z"/>
		</g>
		<g>
			<path style="fill:#50BFA5;" d="M287.32,1246.148c2.327-11.563,9.55-20.605,19.075-25.522c6.707,9.089,9.758,20.771,7.431,32.335
				c-2.327,11.563-9.55,20.606-19.075,25.522C288.044,1269.396,284.992,1257.712,287.32,1246.148z"/>
		</g>
		<g>
			<path style="fill:#50BFA5;" d="M315.651,1271.577c2.328-11.563,9.55-20.605,19.075-25.522c6.706,9.088,9.758,20.771,7.431,32.335
				c-2.327,11.563-9.551,20.606-19.075,25.522C316.376,1294.824,313.324,1283.142,315.651,1271.577z"/>
		</g>
	</g>
	<g>
		<g>
			<path style="fill:#96D9C9;" d="M569.329,1648.289c-95.245,36.157-200.089,17.059-271.272-5.33
				c-77.275-24.305-132.683-57.63-133.235-57.964l-2.111,4.034c0.554,0.336,56.367,33.916,134.153,58.396
				c71.88,22.622,177.804,41.904,274.229,5.299L569.329,1648.289z"/>
		</g>
		<g>
			<path style="fill:#96D9C9;" d="M153.102,1565.652c17.29,6.715,30.58,19.822,37.567,35.088c-13.952,7.133-31.65,8.204-48.94,1.489
				c-17.289-6.716-30.58-19.823-37.567-35.089C118.113,1560.009,135.812,1558.937,153.102,1565.652z"/>
		</g>
		<g>
			<path style="fill:#96D9C9;" d="M186.847,1619.213c16.863-5.923,34.662-4.028,49.117,3.763
				c-5.968,14.966-18.394,27.477-35.257,33.399c-16.863,5.924-34.662,4.029-49.117-3.762
				C157.558,1637.648,169.984,1625.137,186.847,1619.213z"/>
		</g>
		<g>
			<path style="fill:#96D9C9;" d="M230.665,1656.889c11.983-13.414,28.201-20.104,44.112-19.807
				c1.397,16.545-3.863,33.897-15.847,47.313c-11.983,13.415-28.201,20.105-44.111,19.807
				C213.421,1687.657,218.682,1670.304,230.665,1656.889z"/>
		</g>
		<g>
			<path style="fill:#96D9C9;" d="M291.973,1676.343c11.983-13.415,28.201-20.105,44.112-19.807
				c1.397,16.545-3.863,33.897-15.847,47.313s-28.201,20.105-44.112,19.807C274.728,1707.11,279.989,1689.758,291.973,1676.343z"/>
		</g>
		<g>
			<path style="fill:#96D9C9;" d="M234.289,1613.492c-10.545-13.732-15.246-30.277-14.128-45.289
				c13.889,1.619,28.088,9.686,38.634,23.417c10.546,13.732,15.246,30.278,14.129,45.29
				C259.034,1635.291,244.834,1627.225,234.289,1613.492z"/>
		</g>
		<g>
			<path style="fill:#96D9C9;" d="M297.979,1633.425c-10.743-13.571-15.7-30.065-14.827-45.125
				c13.884,1.377,28.184,9.209,38.927,22.78c10.744,13.572,15.7,30.065,14.827,45.125
				C323.022,1654.828,308.723,1646.997,297.979,1633.425z"/>
		</g>
		<g>
			<path style="fill:#96D9C9;" d="M372.545,1681.67c2.817-7.15,8.412-12.116,14.969-14.168c3.146,6.609,3.693,14.46,0.876,21.611
				c-2.817,7.15-8.413,12.116-14.97,14.167C370.275,1696.672,369.728,1688.82,372.545,1681.67z"/>
		</g>
	</g>
	<path style="fill:#3C8F7C;" d="M773.749,1863.979c0,0,121.351-479.934,81.11-528.158
		c-55.613-66.646-101.487,154.443-105.989,135.664c-42.509-177.343-53.833-404.252-190.965-428.268
		c-77.955-13.652,18.006,168.734,12.232,218.063c-5.773,49.328-146.254-114.447-231.621-200.25
		c-85.367-85.803-129.455-31.479-75.517,76.414c52.157,104.33,220.888,218.338,186.108,231.865s-245.932-121.204-271.79-63.61
		c-31.704,70.617,285.034,166.724,255.208,182.587c-29.826,15.863-181.208-36.383-177.072,17.619
		c4.135,54.001,207.635,51.99,204.157,75.742c-5.631,38.462-140.226-48.594-146.142,4.624
		c-6.051,54.433,177.071,44.502,173.899,86.956c-1.823,24.398-41.116-12.402-46.905,21.391
		c-13.201,77.056,228.199,170.925,228.199,170.925L773.749,1863.979z"/>
	<g>
		<path style="fill:#50BFA5;" d="M866.279,1866.914c0,0-115.488-177.07-171.062-210.505c-59.215-35.624-14.134,71.028-14.134,71.028
			s-121.006-143.99-154.644-114.734s-3.107,63.136-3.107,63.136s-108.635-32.191-128.161,7.684
			c-30.004,61.273,148.851,112.083,148.851,112.083s-76.779-0.812-62.653,40.556
			C502.671,1898.547,866.279,1866.914,866.279,1866.914z"/>
		<path style="fill:#96D9C9;" d="M395.17,1683.522c19.526-39.875,128.161-7.684,128.161-7.684s-30.531-33.88,3.107-63.136
			s130.437,58.317,130.437,58.317s-10.146-72.218,62.746-8.6c52.064,45.44,146.657,204.493,146.657,204.493L395.17,1683.522z"/>
	</g>
	<g>
		<g>
			<g>
				<path style="fill:#96D9C9;" d="M726.092,1422.321l5.183-3.54c-94.028-142.406-122.73-311.474-130.252-428.229
					c-8.161-126.704,6.165-220.877,6.311-221.813l-6.422-1.866c-0.147,0.943-14.581,95.746-6.39,223.205
					C602.09,1107.825,631.06,1278.396,726.092,1422.321z"/>
			</g>
			<g>
				<path style="fill:#96D9C9;" d="M625.844,746.555c0.205,28.608-9.719,52.259-25.563,66.447
					c-16.091-20.457-26.383-48.079-26.589-76.685c-0.205-28.607,9.72-52.259,25.563-66.447
					C615.347,690.328,625.639,717.949,625.844,746.555z"/>
			</g>
			<g>
				<path style="fill:#96D9C9;" d="M574.913,810.856c16.027,25.292,22.605,53.69,20.015,78.063
					c-22.001-6.258-44.147-23.189-60.174-48.48c-16.027-25.292-22.606-53.69-20.015-78.063
					C536.74,768.633,558.886,785.565,574.913,810.856z"/>
			</g>
			<g>
				<path style="fill:#96D9C9;" d="M549.222,887.678c23.069,16.047,39.743,40.162,47.395,65.256
					c-20.288,5.661-44.961,1.016-68.031-15.031c-23.069-16.046-39.744-40.162-47.395-65.256
					C501.478,866.987,526.152,871.632,549.222,887.678z"/>
			</g>
			<g>
				<path style="fill:#96D9C9;" d="M579.308,1021.798c10.061,6.003,17.705,15.63,21.629,25.976
					c-8.26,3.075-18.648,1.943-28.709-4.06c-10.061-6.003-17.705-15.63-21.629-25.976
					C558.859,1014.663,569.247,1015.795,579.308,1021.798z"/>
			</g>
			<g>
				<path style="fill:#96D9C9;" d="M587.486,1071.482c10.061,6.003,17.705,15.63,21.629,25.976
					c-8.26,3.075-18.648,1.943-28.709-4.06c-10.061-6.003-17.705-15.63-21.629-25.976
					C567.037,1064.348,577.425,1065.479,587.486,1071.482z"/>
			</g>
			<g>
				<path style="fill:#96D9C9;" d="M629.008,870.375c18.589-10.533,40.328-10.421,59.609-1.712
					c-3.232,21.467-14.81,40.457-33.399,50.991c-18.589,10.533-40.328,10.421-59.609,1.712
					C598.84,899.899,610.419,880.908,629.008,870.375z"/>
			</g>
			<g>
				<path style="fill:#96D9C9;" d="M632.719,945.221c18.588-10.533,40.327-10.421,59.608-1.712
					c-3.232,21.466-14.81,40.457-33.399,50.99c-18.589,10.533-40.328,10.422-59.609,1.712
					C602.551,974.745,614.13,955.754,632.719,945.221z"/>
			</g>
			<g>
				<path style="fill:#96D9C9;" d="M629.032,1052.342c12.099-6.855,26.248-6.783,38.798-1.114
					c-2.104,13.972-9.64,26.333-21.739,33.188c-12.099,6.856-26.248,6.783-38.798,1.114
					C609.396,1071.559,616.933,1059.198,629.032,1052.342z"/>
			</g>
		</g>
	</g>
	<g>
		<path style="fill:#F8A492;" d="M1955.846,1474.635c10.926,1.771,10.28,3.555,11.686,3.743c1.662,0.224,21.383-9.681,21.383-9.681
			s58.325-28.787,61.418-30.457l42.1-52.966l32.444,14.964c0,0-47.347,56.312-50.342,58.793
			c-2.996,2.48-86.626,31.807-93.897,34.635c0,0-7.332,6.702-12.077,10.751c-4.745,4.048-11.09,5.652-12.604,6.574
			c-0.224,0.137-5.457,2.899-12.852,4.508c-6.373,1.387-1.063-2.942-1.063-2.942s11.274-4.76,10.72-5.62
			c-0.427-0.663-6.421,2.313-13.454,3.923c-1.808,0.414-3.595,0.816-5.238,1.171c-4.316,0.934-6.213-1.536-1.876-3.257
			c1.532-0.607,4.103-1.552,6.038-1.955c2.091-0.437,3.849-1.534,5.541-2.179c3.36-1.278,5.828-2.167,5.695-2.282
			c-0.173-0.15,0.301-0.893-1.635-0.516c-2.326,0.454-7.019,2.548-10.501,2.942c-1.974,0.223-6.063,0.948-6.063,0.948
			s-7.235,0.692-7.285-0.322c-0.108-2.216,4.347-3.455,7.083-3.398c1.725-0.879,6.052-1.516,6.052-1.516s8.393-3.313,7.905-4.555
			c-0.194-0.496-5.275,0.267-10.667,0.636c-5.699,0.391-9.827,0.389-10.132-0.714c-0.481-1.752,4.054-2.415,4.054-2.415
			s4-0.583,5.31-0.882c1.536-0.35,6.042-1.762,6.042-1.762s15.436-5.67,14.878-6.809c-0.557-1.14-3.106-3.524-4.195-3.518
			c-1.088,0.006-3.034,1.092-4.123,1.098c-1.088,0.007-3.43-0.203-3.593-1.573c-0.163-1.369,5.881-4.206,5.881-4.206
			S1952.692,1474.124,1955.846,1474.635z"/>
		<path style="fill:#355389;" d="M2063.135,1418.079c0,0,10.503,9.542,14.872,12.683c3.631,2.611,21.329,11.135,21.329,11.135
			s17.606-26.961,25.306-40.48c9.34-16.403,15.808-40.796,13.6-41.457c-6.196-1.856-14.722-2.991-22.594,0.622
			C2088.405,1373.085,2063.135,1418.079,2063.135,1418.079z"/>
		<path style="fill:#FE875E;" d="M1966.049,1488.725c-4.675,0.737-9.454-0.15-11.524-4.43
			C1954.058,1489.37,1961.749,1491.888,1966.049,1488.725z"/>
	</g>
	<path style="fill:#13375B;" d="M660.617,1299.601c0.649-15.701-1.654-31.206-8.648-45.824
		c-6.019-12.576-20.909-19.713-34.489-19.73c-43.121-0.057-48.604,57.161-76.053,79.231c-8.387,6.744-17.762,12.236-25.698,19.51
		c-29.306,26.854-16.106,76.565,10.804,100.108c18.673,16.338,48.022,25.621,71.036,12.849
		c12.014-6.666,21.134-17.749,27.631-29.891c9.222-17.233,15.166-37.116,21.725-55.482
		C653.905,1340.822,659.754,1320.471,660.617,1299.601z"/>
	<path style="fill:#F7CC7F;" d="M667.66,1375.632c-13.469-40.857-31.25-40.221-31.25-40.221l14.367,87.001
		c8.317-2.273,19.147-7.336,27.455-9.683C675.478,1399.813,670.977,1385.694,667.66,1375.632z"/>
	<path style="fill:#F48C7F;" d="M735.728,1514.979l-49.241-37.563c0,0-4.953-35.042-11.586-66.141
		c-8.308,2.347-15.807,8.863-24.125,11.137l12.521,69.64l64.538,33.295l18.229,23.428l4.146-24.05L735.728,1514.979z"/>
	<path style="fill:#F47458;" d="M1184.577,1456.31c15.291,0,29.637,4.028,42.042,11.078c1.568,0.891,3.269,1.705,5.081,2.449
		c37.838,15.54,79.242-13.24,79.242-54.146v-201.174h-201.174c-40.905,0-69.686-41.404-54.146-79.242
		c0.744-1.813,1.559-3.514,2.45-5.081c7.05-12.405,11.078-26.751,11.078-42.042c0-48.452-40.399-87.468-89.351-85.201
		c-44.297,2.051-79.97,38.438-81.207,82.766c-0.44,15.767,3.405,30.597,10.452,43.419c0.877,1.597,1.683,3.327,2.421,5.169
		c15.415,38.457-13.826,80.213-55.257,80.213H656.765v458.389c0,108.131,87.657,195.787,195.788,195.787h458.389v-200.504
		c0-41.106-41.536-70.065-79.612-54.577c-1.82,0.74-3.528,1.549-5.103,2.433c-13.564,7.614-29.419,11.625-46.279,10.734
		c-43.433-2.297-78.518-37.595-80.568-81.041C1097.067,1496.752,1136.099,1456.31,1184.577,1456.31z"/>
	<path style="fill:#F7CC7F;" d="M1620.588,1344.719c0.715-15.274,5.408-29.417,13.029-41.479c0.964-1.524,1.856-3.186,2.685-4.96
		c17.29-37.071-9.525-79.773-50.386-81.684l-200.955-9.395l-9.395,200.954c-1.91,40.861-44.613,67.677-81.685,50.387
		c-1.775-0.828-3.436-1.721-4.96-2.685c-12.063-7.621-26.204-12.314-41.478-13.028c-48.4-2.263-89.26,36.271-89.282,85.274
		c-0.02,44.345,34.663,81.678,78.884,84.983c15.729,1.176,30.722-1.973,43.859-8.413c1.636-0.802,3.402-1.525,5.276-2.177
		c39.135-13.603,79.479,17.556,77.545,58.942l-9.313,199.225l457.889,21.405c108.014,5.05,199.668-78.418,204.717-186.431
		l21.406-457.89l-200.286-9.362c-41.062-1.92-71.929,38.218-58.235,76.977c0.654,1.853,1.383,3.597,2.192,5.211
		c6.972,13.904,10.238,29.93,8.561,46.729c-4.322,43.278-41.22,76.677-84.714,76.696
		C1656.9,1434.021,1618.324,1393.144,1620.588,1344.719z"/>
	<path style="fill:#50BFA5;" d="M1060.641,1028.309c0.768,15.271-2.534,29.801-8.953,42.545c-0.811,1.61-1.539,3.351-2.191,5.197
		c-13.62,38.57,17.203,78.477,58.057,76.422l200.921-10.103l-10.103-200.92c-2.054-40.854,37.852-71.677,76.423-58.057
		c1.847,0.652,3.587,1.38,5.197,2.191c12.743,6.418,27.273,9.72,42.545,8.952c48.391-2.433,85.329-44.741,80.606-93.517
		c-4.272-44.138-42.406-77.938-86.739-76.948c-15.769,0.352-30.387,4.937-42.839,12.619c-1.551,0.957-3.239,1.848-5.041,2.677
		c-37.634,17.328-80.806-9.779-82.886-51.159l-10.016-199.19L817.81,512.039c-107.994,5.43-191.138,97.379-185.708,205.373
		l23.02,457.811l200.251-10.069c41.055-2.064,67.892-45.002,50.51-82.253c-0.831-1.78-1.724-3.445-2.686-4.974
		c-8.285-13.164-13.088-28.798-13.044-45.682c0.112-43.494,33.603-80.307,76.891-84.537
		C1015.854,942.939,1058.206,979.891,1060.641,1028.309z"/>
	<path style="fill:#184655;" d="M1471.876,917.42c-15.291,0-29.637-4.028-42.042-11.078c-1.567-0.891-3.269-1.706-5.08-2.449
		c-37.839-15.54-79.242,13.24-79.242,54.145v201.175h201.174c40.905,0,69.686,41.403,54.146,79.242
		c-0.744,1.812-1.559,3.513-2.45,5.08c-7.05,12.405-11.077,26.751-11.077,42.042c0,48.452,40.398,87.469,89.351,85.202
		c44.297-2.052,79.97-38.439,81.207-82.767c0.439-15.767-3.405-30.596-10.452-43.418c-0.877-1.597-1.683-3.327-2.421-5.169
		c-15.415-38.457,13.825-80.213,55.257-80.213h199.442V700.824c0-108.13-87.657-195.788-195.788-195.788h-458.389v200.504
		c0,41.106,41.535,70.066,79.612,54.577c1.819-0.74,3.528-1.549,5.103-2.433c13.563-7.614,29.419-11.626,46.279-10.734
		c43.434,2.297,78.518,37.594,80.568,81.04C1559.387,876.978,1520.354,917.42,1471.876,917.42z"/>
	<path style="fill:#F7A491;" d="M525.825,1805.088c0,0-3.038,21.121-8.265,27.936c-1.754,2.287-4.958,5.181-7.062,9.315
		c-3.274,6.435-1.464,16.016,0.951,21.293c1.24,2.708-0.087,2.7,2.736,3.573c8.36,2.584,17.253-1.769,20.812-9.793
		c1.988-4.482,3.732-10.462,4.084-17.997c0.892-19.176,6.843-28.926,6.843-28.926L525.825,1805.088z"/>
	<path style="fill:#F7A491;" d="M617.261,1814.748c0,0,1.875,23.815,0.354,31.555c-0.815,4.145-5.355,12.676-3.273,16.575
		c2.082,3.9,4.463,4.876,4.463,4.876l53.974,0.871c2.94,0.048,0.997-1.849-1.373-3.596c-3.88-2.859-7.011-4.75-19.406-10.759
		c-0.808-0.392-3.751-2.269-4.813-2.918c-2.691-1.646-5.393-4.239-7.721-6.835c-3.875-4.325-4.214-25.297-4.214-25.297
		L617.261,1814.748z"/>
	<path style="fill:#355389;" d="M659.446,1498.187c0,0,6.797,38.667,2.334,64.017s-25.882,260.322-25.882,260.322l-23.803,1.346
		c0,0-4.989-98.153-4.097-111.803c0.892-13.65,7.956-36.493,7.956-36.493l-2.369-79.247l30.037-104.109L659.446,1498.187z"/>
	<path style="fill:#466EB6;" d="M589.488,1490.054c0,0-18.743,28.274-23.205,51.675c-4.462,23.399,3.275,95.313-5.309,125.977
		c-4.648,16.599-22.26,42.232-24.937,63.683c-2.678,21.45-13.181,77.636-13.181,77.636l23.792,4.727l55.294-140.321l43.372-126.829
		l11.111-65.32L589.488,1490.054z"/>
	<path style="fill:#F7CC7F;" d="M604.661,1329.181c0,0-24.815-1.584-34.633,9.141c-9.817,10.725,21.778,95.565,23.563,109.215
		c1.785,13.649-9.1,49.943-9.1,49.943s58.294,11.757,74.955,0.707c0,0,1.785-98.154,0-107.904
		c-1.785-9.751-16.661-49.402-20.231-53.302C635.645,1333.08,604.661,1329.181,604.661,1329.181z"/>
	<path style="fill:#F7A491;" d="M612.922,1295.946c0,0-0.128,0.732-0.359,1.979c-1.107,5.979-5.367,25.816-8.246,31.27
		c-3.479,6.591,11.908,27.609,26.718,25.044c4.409-0.764-3.726-19.313-3.335-21.277c0.748-3.761,1.763-8.893,2.801-14.153
		c0.586-2.968,1.179-5.978,1.737-8.805c1.583-8.038,2.876-14.611,2.876-14.611L612.922,1295.946z"/>
	<path style="fill:#F47458;" d="M612.563,1297.925c0.23-1.246,0.359-1.979,0.359-1.979l22.192-0.555c0,0-1.292,6.573-2.876,14.611
		c-0.555,2.812-1.144,5.804-1.727,8.756c-3.426-0.506-7.006-2.175-10.596-5.325c-3.913-3.433-6.478-7.559-8.026-11.964
		C612.163,1300.064,612.391,1298.853,612.563,1297.925z"/>
	<path style="fill:#F7A491;" d="M627.858,1245.389c0,0-10.46-1.212-17.017,7.288c-6.556,8.499-13.623,34.783,2.664,49.073
		c16.288,14.29,32.381-1.886,34.767-19.036C650.659,1265.563,651.586,1244.77,627.858,1245.389z"/>
	<path style="fill:#F7A491;" d="M653.091,1282.461c-1.944,3.787-5.207,5.885-7.289,4.685c-2.081-1.2-2.193-5.245-0.248-9.032
		c1.944-3.788,5.207-5.886,7.289-4.686C654.923,1274.629,655.035,1278.673,653.091,1282.461z"/>
	<path style="fill:#13375B;" d="M629.028,1242.578c0,0-13.975,24.995-23.971,26.15c-9.997,1.154-11.31,14.436-11.31,14.436
		s3.574-30.604,13.471-36.505C617.115,1240.758,629.028,1242.578,629.028,1242.578z"/>
	<path style="fill:#F47458;" d="M536.619,1853.191c-12.966,2.369-21.594-5.232-26.084-10.924
		c-3.296,6.447-4.904,16.067-2.479,21.364c2.135,4.665,8.374,4.53,13.288,4.714c5.194,0.193,9.213-2.699,11.791-7.232
		C534.337,1858.996,535.579,1856.359,536.619,1853.191z"/>
	<path style="fill:#F47458;" d="M647.178,1851.349c-14.274,3.671-24.826,1.175-30.728-1.21c-1.522,4.323-3.54,9.748-2.47,12.876
		c1.31,3.83,3.176,4.695,4.824,4.739c13.038,0.343,47.759,0.81,57.701,0.939c1.388,0.019,2.154-1.607,1.262-2.676
		C675.301,1863.066,648.242,1852,647.178,1851.349z"/>
	<path style="fill:#F7A491;" d="M607.679,1275.009c0.813,4.438-0.822,8.509-3.653,9.092c-2.83,0.583-5.783-2.543-6.596-6.982
		c-0.813-4.438,0.822-8.509,3.652-9.092C603.912,1267.444,606.865,1270.57,607.679,1275.009z"/>
	<path style="fill:#FFFFFF;" d="M624.004,1290.381l12.617,0.57c0,0-0.507,4.779-6.063,4.688
		C623.783,1295.529,624.004,1290.381,624.004,1290.381z"/>
	<g>
		<path style="fill:#DD513A;" d="M1699.964,284.255c1.571,0.065,5.877,1.506,12.173,13.405
			c8.041,15.195,19.793,61.099,19.793,61.099l-35.078,13.063l-4.507-9.581l-7.422-73.762
			C1684.923,288.479,1699.529,284.237,1699.964,284.255z"/>
		<path style="fill:#F47458;" d="M1653.595,277.639c10.03,0.013,34.85,2.94,46.369,6.62c0,0,8.462,72.733-7.619,128.001
			c-3.6,12.372,2.978,51.285,2.978,51.285l-103.939-1.371c0,0,12.313-94.075,7.675-109.271c-4.639-15.195-4.749-68.154-4.749-68.154
			s0.711-0.111,23.352-4.024C1628.221,278.898,1642.886,277.625,1653.595,277.639z"/>
		<path style="fill:#F7A491;" d="M1641.483,598.54c0,0,2.3,26.54,6.527,33.889c4.228,7.349-0.223,19.843-0.445,21.558
			c-0.222,1.715-8.9,4.165-22.696,2.695c-13.796-1.47-13.574-4.654-12.461-9.799c1.112-5.145,8.455-11.759,8.9-16.659
			c0.445-4.899-4.228-22.538-4.228-22.538L1641.483,598.54z"/>
		<path style="fill:#E0973F;" d="M1683.595,441.639c0,0,71.75-3.984,87.771,5.719c16.022,9.704-11.383,57.326-11.383,57.326
			s-49.926-2.301-147.717,3.343c-23.157,1.337-25.153-60.38-20.822-65.487C1595.774,437.433,1683.595,441.639,1683.595,441.639z"/>
		<path style="fill:#DD513A;" d="M1623.148,658.743c-14.206-1.514-12.449-8.493-11.304-13.791c0.717-3.317,4.792-7.227,7.222-10.926
			c1.27,1.011,3.336,2.797,9.505,4.62c6.406,1.892,15.188-1.853,20.784-4.199c1.995,7.423,2.086,16.89,1.899,18.325
			C1651.026,654.538,1637.354,660.256,1623.148,658.743z"/>
		<path style="fill:#F7CC7F;" d="M1630.99,492.969c2.866,21.692,17.06,129.677,17.06,129.677l-32.933,4.083
			c0,0-40.498-140.946-38.422-162.504c2.077-21.559,17.236-23.372,17.236-23.372S1623.402,435.548,1630.99,492.969z"/>
		<path style="fill:#F7A491;" d="M1593.177,292.832c9.718-3.645,14.473,83.918,15.782,119.958
			c17.21,1.656,47.206,0.013,54.676-0.548c3.513-0.264,11.612-3.23,15.105-3.688c3.58-0.469,6.825-0.713,8.585-0.407
			c0.646,0.112,18.584,7.448,20.119,9.057c1.903,1.995,7.048,7.027,6.18,9.204c-0.868,2.176-9.895-6.064-9.895-6.064l-4.412-2.475
			c5.492,5.365,15.967,12.43,14.458,15.003c-1.472,2.509-10.92-4.661-17.654-9.548c5.776,5.217,12.951,14.553,11.299,16.008
			c-1.486,1.308-9.648-9.5-18.372-12.613c-3.232-1.153-6.455,2.04-8.997,2.427c-1.869,0.284-4.755,0.887-6.588,0.367l-9.445-2.679
			c-3.217,0.292-3.298,2.195-6.547,2.886c-3.772,0.803-9.961,1.648-14.765,2.822c-27.661,6.758-36.888,9.897-45.356,9.892
			C1571.697,442.42,1570.209,301.448,1593.177,292.832z"/>
		<path style="fill:#DD513A;" d="M1574.734,375.039c-1.821-36.917-1.555-82.42,19.141-90.183
			c8.165-3.063,22.561,15.355,19.972,90.933C1602.799,376.701,1586.579,377.435,1574.734,375.039z"/>
		<path style="fill:#F7A491;" d="M1737.785,621.241c0,0-2.874,9.213,2.271,15.306c5.146,6.093,26.526,12.07,29.332,15.371
			c2.807,3.3,2.595,6.11,2.595,6.11l-60.009-1.652l0.653-18.123l2.764-13.023L1737.785,621.241z"/>
		<path style="fill:#DD513A;" d="M1743.789,639.585c0,0-15.419,6.237-22.867,2.544c-7.448-3.693-7.224-4.716-9.379-3.339
			s-2.927,18.366-2.927,18.366l67.479,1.983c4.695-0.108,7.069-3.566,3.255-6.526c-2.616-2.03-5.64-3.389-7.357-4.375
			C1766.714,645.212,1743.789,639.585,1743.789,639.585z"/>
		<path style="fill:#F7CC7F;" d="M1735.511,458.646c4.638-9.761,15.187-22.469,33.746-14.815
			c17.702,7.3,22.453,25.241,16.868,43.612c-5.585,18.372-42.354,126.368-43.635,141.217l-29.357,0.195
			c0,0,5.335-85.514,6.644-106.184C1721.036,502.783,1727.483,475.539,1735.511,458.646z"/>
		<path d="M1783.169,359.177h-98.135c-2.597,0-4.935,1.574-5.92,3.985l-30.217,73.948h-54.103c-1.513,0-2.739,1.229-2.739,2.746l0,0
			c0,1.517,1.227,2.747,2.739,2.747h153.98c4.232,0,8.072-2.493,9.806-6.368l30.426-68.007
			C1790.907,363.978,1787.81,359.177,1783.169,359.177z"/>
		<path style="fill:#FFFFFF;" d="M1730.333,402.237c-0.662,3.322-3.55,5.543-6.449,4.961c-2.898-0.582-4.711-3.746-4.049-7.067
			c0.663-3.321,3.551-5.542,6.45-4.961C1729.184,395.751,1730.996,398.915,1730.333,402.237z"/>
		<g>
			<path style="fill:#0E2E35;" d="M1676.916,188.805c-2.957-0.996-5.869-2.12-8.681-3.476c-3.179-1.533-7.297-3.328-9.899-3.73
				c-5.477-0.845-14.885-0.282-20.081,5.355c-6.473,7.022-17.975,1.268-15.657,38.045c2.622,41.628,25.769,37.059,26.33,36.354
				s20.643-26.631,20.643-26.631s7.021,15.359,7.021,14.795C1676.592,248.973,1712.444,200.77,1676.916,188.805z"/>
			<path style="fill:#F7A491;" d="M1659.345,264.427l1.998,14.874c0,0,4.477,21.43-1.282,25.561
				c-5.758,4.131-24.488-26.172-24.488-26.172l1.979-37.69L1659.345,264.427z"/>
			<path style="fill:#F47458;" d="M1636.911,253.215c4.757,12.855,16.086,20.757,24.128,23.823l-1.694-12.611l-21.794-23.427
				L1636.911,253.215z"/>
			<path style="fill:#F7A491;" d="M1658.162,199.985c12.202-1.97,23.146,7.844,22.842,20.059c-0.133,5.31-0.568,11.939-1.671,19.078
				c-2.653,17.17-14.368,32.29-22.114,30.94s-27.236-16.162-23.805-40.596C1635.533,214.38,1645.357,202.053,1658.162,199.985z"/>
			<path style="fill:#F7A491;" d="M1638.789,232.382c-0.653,3.776-3.678,6.402-6.755,5.866c-3.077-0.536-5.042-4.032-4.388-7.808
				c0.653-3.775,3.678-6.401,6.755-5.865C1637.479,225.11,1639.443,228.606,1638.789,232.382z"/>
			<path style="fill:#0E2E35;" d="M1634.401,224.574c0,0,9.365,2.327,12.841-3.697c3.476-6.024,15.904-19.022,31.702-13.633
				c15.799,5.39-13.902-13.104-15.166-13.104c-1.265,0-16.431-0.105-16.431-0.105s-11.69,9.617-12.112,10.674
				c-0.421,1.057-3.791,12.576-3.791,12.576L1634.401,224.574z"/>
		</g>
		<path style="fill:#FFFFFF;" d="M1651.536,249.706l17.041,3.258c0,0-1.626,6.419-9.161,5.204
			C1650.228,256.686,1651.536,249.706,1651.536,249.706z"/>
	</g>
	<g>
		<path style="fill:#F8A492;" d="M1363.265,1436.184c0.651,2.245,1.027,2.99,1.855,4.498c5.344,9.727,17.743,23.606,17.743,23.606
			l9.592-21.609c0,0-1.564-6.785-4.275-16.484C1378.916,1428.612,1370.093,1430.013,1363.265,1436.184z"/>
		<path style="fill:#13375B;" d="M1418.256,1417.439c0,0-53.496,23.037-55.226,22.597c-1.114-0.283-21.943-35.147-22.166-67.935
			c-0.103-15.143,15.623-33.357,33.169-29.756c8.833,1.814,8.697,4.271,21.766,23.262S1418.256,1417.439,1418.256,1417.439z"/>
		<path style="fill:#F7A491;" d="M1463.922,1830.469c0,0-1.27,21.011-1.276,21.054c-0.467,2.667-2.304,9.258-2.304,11.683
			c0,9.11,43.258-7.733,33.563-11.771c-0.878-0.365-5.476-3.129-5.764-6.229c-0.444-4.777-1.572-14.441-1.572-14.441
			L1463.922,1830.469z"/>
		<path style="fill:#DD513A;" d="M1493.798,1851.349c0,0-10.156,2.786-15.358,3.483c-5.201,0.696-12.059-5.17-15.738-3.585
			c-4.049,1.744-3.891,17.442-3.891,17.442s54.463,4.469,69.777-0.154C1534.655,1866.704,1514.561,1857.839,1493.798,1851.349z"/>
		<path style="fill:#F7A491;" d="M1375.431,1830.469c0,0-1.269,21.011-1.276,21.054c-0.467,2.667-2.304,9.258-2.304,11.683
			c0,9.11,43.258-7.733,33.563-11.771c-0.878-0.365-6.838-5.192-7.127-8.292c-0.444-4.777-0.209-12.379-0.209-12.379
			L1375.431,1830.469z"/>
		<path style="fill:#DD513A;" d="M1405.307,1851.349c0,0-10.156,2.786-15.357,3.483c-5.202,0.696-12.06-5.17-15.739-3.585
			c-4.049,1.744-4.211,17.442-4.211,17.442s54.71,5.21,70.099-0.154C1446.071,1866.453,1426.069,1857.839,1405.307,1851.349z"/>
		<g>
			<path style="fill:#F7A491;" d="M1388.651,1447.825l38.1-53.372c0.159-0.468,0.506-1.423,1.035-2.884
				c1.919-5.296,5.911-16.315,9.39-27.279l0.037-0.117c1.093-3.831,3.409-10.516,5.649-16.983c2.491-7.19,5.581-16.107,5.689-17.629
				c-0.096-0.26-0.275-0.727-0.515-1.346c-1.396-3.627-3.285-12.263-3.953-16.018c-0.425-2.391-0.85-8.203,1.992-8.203
				c4.469,0,2.34,5.805,4.4,9.43c0.758-2.423,2.288-7.229,3.097-12.095l0.747-11.347c0.144-0.855-0.767-7.115,2.368-7.115
				l0.149,0.005c2.815,0.206,2.753,6.861,3.923,18.117c0.37-1.295,0.741-2.857,1.021-4.293c-0.033-0.77,0.531-4.153,0.953-5.94
				c-0.566-3.136-0.237-8.083,3.104-7.616c1.674,0.234,1.535,7.138,1.535,7.138c-0.018,0.947-0.116,8.247-0.064,9.689
				c0.344-2.449,1.682-12.896,4.303-12.896c2.173,0,2.348,2.812,2.302,5.036c-0.026,1.316-1.392,12.634-1.468,13.95
				c1.023-1.718,2.236-11.691,3.25-11.691c4.238,0,2.706,14.181,1.149,17.876c-0.146,0.378-0.302,1.12-0.481,1.979
				c-0.529,2.526-1.416,6.755-3.634,10.551c-2.661,4.552-6.331,11.788-6.891,12.897c-0.41,2.261-1.685,10.39-3.289,20.616
				c-0.686,4.376-1.438,9.174-2.222,14.144l-0.042-0.006c-0.144,1.076-0.938,4.496-3.951,17.326
				c-4.124,17.558-4.553,18.316-4.735,18.641c-1.79,3.17-42.869,58.955-44.616,61.327l-1.031,1.401L1388.651,1447.825z"/>
			<path style="fill:#F47458;" d="M1459.515,1323.347c0,0-3.092-7.908-8.598-7.923c0,0,3.076-1.109,5.714,0.979
				S1459.515,1323.347,1459.515,1323.347z"/>
		</g>
		<g>
			<path style="fill:#F7A491;" d="M1379.446,1308.067l-4.904,31.017c0,0,18.688,15.006,29.582,11.841
				c9.14-2.656,2.872-14.605,2.872-14.605s-4.87-16.559-3.376-25.238C1405.114,1302.402,1379.446,1308.067,1379.446,1308.067z"/>
			<path style="fill:#FE875E;" d="M1382.968,1317.444c4.684,2.212,13.944,5.23,21.15,5.961c-0.689-4.341-1.082-8.932-0.498-12.324
				c0.689-4.005-4.407-4.953-10.095-4.814c-7.443,0.638-14.079,1.801-14.079,1.801l-0.942,5.96
				C1379.919,1315.521,1381.407,1316.708,1382.968,1317.444z"/>
			<path style="fill:#F7A491;" d="M1355.862,1272.289c-0.771,0.004,7.387,34.652,20.013,40.613s31.455,2.854,34.988-6.479
				c3.908-10.322-10.348-45.673-28.105-50.163C1365.001,1251.77,1355.862,1272.289,1355.862,1272.289z"/>
			<path style="fill:#13375B;" d="M1370.473,1240.453c-10.085,5.816-14.714,14.443-16.271,17.977
				c-4.733,2.246-10.46,7.104-13.21,20.195c-3.38,16.095,8.638,28.502,21.38,32.234c12.742,3.732,14.71,12.164,14.71,12.164
				l1.445-9.074c0,0-2.834-7.9-7.097-11.854c-4.263-3.953,2.019-9.716,2.571-14.416c0.425-3.619-2.24-10.646-1.662-16.586
				c0,0,7.08-10.729,14.06-13.381C1398.296,1253.192,1383.412,1232.989,1370.473,1240.453z"/>
			<path style="fill:#F7A491;" d="M1375.839,1293.711c1.65,4.002,0.976,7.976-1.506,8.875c-2.482,0.898-5.833-1.616-7.483-5.618
				c-1.65-4.002-0.976-7.976,1.507-8.874C1370.839,1287.194,1374.189,1289.709,1375.839,1293.711z"/>
		</g>
		<path style="fill:#F8A492;" d="M1422.869,1448.684l73.49-11.981c0,0-8.362-21.051-11.35-21.051s-55.568,22.954-55.568,22.954
			l-4.183,8.398L1422.869,1448.684z"/>
		<path style="fill:#184655;" d="M1385.227,1499.07c0,0-7.331,35.441-4.344,62.315c2.987,26.873,3.223,122.336,3.223,122.336
			l-11.401,152.74l27.05,0.589c0,0,32.077-152.666,31.479-148.747s10.755-107.493,10.755-107.493l-38.24-85.099L1385.227,1499.07z"
			/>
		<path style="fill:#13375B;" d="M1392.396,1497.391c0,0-4.78,31.912,1.195,45.909c5.975,13.996,51.248,151.327,51.846,162.524
			s15.653,134.96,15.653,134.96l31.454-0.884l6.805-137.601l-14.248-172.941l-13.834-43.725L1392.396,1497.391z"/>
		<path style="fill:#F7A491;" d="M1374.542,1339.084c0,0,7.756,5.09,14.991,4.5c7.234-0.589,17.463-7.265,17.463-7.265l-1.422-4.819
			c0,0-18.715-2.726-19.188-2.431C1385.915,1329.363,1374.542,1339.084,1374.542,1339.084z"/>
		<path style="fill:#F8A492;" d="M1457.212,1414.613c0,0,27.798,26.232,40.346,21.753c12.548-4.479,17.739-19.788-12.876-42.188
			C1457.281,1374.132,1457.212,1414.613,1457.212,1414.613z"/>
		<path style="fill:#355389;" d="M1476.047,1447.004c-4.129-22.466-34.058-92.377-36.447-105.254
			c-1.162-6.263-17.306-6.4-32.683-5.583c-16.241,0.863-32.375,2.917-32.375,2.917s-14.378,2.361-20.704,8.289
			s-8.006,22.32,1.087,53.44c7.179,24.564,16.078,38.053,20.482,55.946c0.892,6.002,1.656,11.924,2.668,18.842
			c1.619,26.755-0.02,62.1-0.02,62.1s78.274,16.236,107.552-8.398C1485.607,1529.303,1480.278,1470.021,1476.047,1447.004z"/>
		<path style="fill:#466EB6;" d="M1496.005,1398.697c0,0-30.713,25.353-32.505,25.353c-1.154,0-43.829-31.393-53.68-57.183
			c-5.445-14.258,5.977-30.209,19.023-30.156c9.043,0.037,13.064,2.367,30.989,17.483S1496.005,1398.697,1496.005,1398.697z"/>
	</g>
	<path style="fill:#13375B;" d="M955.719,267.034c5.033-12.112,10.152-24.249,23.211-30.383c10.568-4.964,21.608-3.095,30.999,3.966
		c26.607,20.008,3.423,42.052,33.71,79.992c9.411,11.789,20.802,21.308,26.44,35.123c7.893,19.337-1.508,28.624-16.575,37.884
		c-72.091,44.312-109.88-46.669-108.523-67.482C945.991,310.65,952.479,274.831,955.719,267.034z"/>
	<path style="fill:#F7A491;" d="M880.903,502.85c3.04-0.481,10.421-5.768,13.026-6.249c2.02-0.373,6.387-1.034,8.248-1.313
		c2.279-8.514,13.859-54.93,15.156-68.536c1.405-14.74,11.828-78.509,11.828-78.509l26.991,4.906c0,0-11.209,49.056-14.309,72.843
		c-2.662,20.431-25.079,66.368-27.928,71.215c-0.004,0.117-0.005,0.23-0.013,0.354c-0.434,7.21-3.908,4.807-3.908,4.807
		l-5.645,1.442c0,0-19.974,1.923-21.276,2.404C881.772,506.695,877.864,503.33,880.903,502.85z"/>
	<path style="fill:#6A97CE;" d="M952.697,310.966c-19.081,6.469-29.93,58.342-29.93,58.342s29.935,8.357,37.605,3.974
		c0,0,8.707-38.589,11.826-37.241L952.697,310.966z"/>
	<path style="fill:#F7A491;" d="M805.102,592.471c-5.839,15.398-8.867,30.229-9.141,32.023c-0.131,0.862,1.087,5.048,0.974,5.944
		c-11.719,15.986-28.563,19.483-43,20.502c7.358-7.183,18.163-13.99,18.682-16.265c0.827-3.622,5.271-19.747,7.457-42.094
		C789.055,596.736,795.148,593.443,805.102,592.471z"/>
	<path style="fill:#256653;" d="M971.16,420.212l25.787,72.625c0,0-41.438,7.8-56.93,10.641
		c-15.491,2.841-102.047,6.622-104.24,8.159c-1.628,1.141-19.508,58.97-27.495,90.858c-9.061,1.994-24.571-0.401-32.822-3.245
		c4.458-45.625,20.56-117.908,25.715-125.777C809.573,460.656,971.16,420.212,971.16,420.212z"/>
	<path style="fill:#F7A491;" d="M870.426,624.307c-2.85,16.219-3.046,31.355-2.978,33.169c0.033,0.872,2.014,4.754,2.07,5.656
		c-8.516,17.899-24.405,24.49-38.396,28.197c5.882-8.435,15.22-17.145,15.304-19.477c0.133-3.713,1.477-20.385-0.563-42.745
		C855.462,631.503,860.831,627.127,870.426,624.307z"/>
	<path style="fill:#327F6B;" d="M1001.264,423.982l10.001,17.083c15.228,26.008,3.555,59.469-24.542,70.37
		c-0.152,0.059-0.301,0.117-0.448,0.174c-14.685,5.693-98.998,25.627-100.865,27.548c-1.385,1.425-8.112,61.581-9.982,94.4
		c-8.527,3.656-24.211,4.211-32.849,2.963c-4.171-45.652-1.899-119.672,1.69-128.368
		C850.117,493.989,1001.264,423.982,1001.264,423.982z"/>
	<path style="fill:#13375B;" d="M866.156,657.981c2.245-2.48,10.486,11.165,12.545,14.077c2.316,3.275,1.657,5.743,1.38,6.255
		c-0.731,1.351-44.191,26.919-54.79,28.74c-1.001,0.172-2.736-0.46-3.172-0.847c-4.143-3.668,14.924-30.741,23.486-34.299
		C851.138,669.607,856.057,669.135,866.156,657.981z"/>
	<path style="fill:#13375B;" d="M794.575,624.985c2.67-2.015,8.208,12.933,9.685,16.179c1.662,3.651,0.552,5.952,0.184,6.403
		c-0.972,1.19-48.453,18.162-59.205,17.964c-1.016-0.019-2.601-0.965-2.958-1.427c-3.382-4.378,20.42-27.4,29.497-29.291
		C777.644,633.591,782.565,634.049,794.575,624.985z"/>
	<path style="fill:#9BC1F9;" d="M970.792,310.817L970.792,310.817L970.792,310.817c-0.494,0.003-1.201-0.17-1.925-0.397
		c-3.544-0.634-11.291-1.562-17.319,0.982c-7.332,3.093-18.694,31.996-18.018,61.663c0.272,4.535,0.547,8.596,0.781,11.427
		c1.851,22.41,8.28,64.461,8.627,64.685c8.746,5.629,61.516-16.195,65.143-20.989c3.626-4.794,5.765-63.043,7.529-65.947
		l3.466-50.658C1012.957,309.756,980.174,310.75,970.792,310.817z"/>
	<path style="fill:#F7A491;" d="M992.178,292.162c0,0-3.397,17.574-2.718,24.506c0.68,6.932-2.591,29.273-17.264,29.347
		c-14.673,0.074-2.786-28.405-1.404-35.198c1.382-6.793,1.709-27.821,1.709-27.821L992.178,292.162z"/>
	<path style="fill:#F47458;" d="M972.198,293.546c0.229-5.752,0.303-10.55,0.303-10.55l19.676,9.166c0,0-0.695,3.593-1.393,8.172
		C982.172,302.065,975.93,298.876,972.198,293.546z"/>
	<path style="fill:#F7A491;" d="M999.369,243.66c0,0,7.583,4.206,10.354,13.323c2.772,9.117-0.383,32.642-19.969,38.318
		c-19.586,5.676-28.071-12.952-24.037-27.515C969.751,253.222,978.526,234.779,999.369,243.66z"/>
	<path style="fill:#F7A491;" d="M963.268,262.141c0.384,3.912,2.542,6.901,4.821,6.678c2.279-0.224,3.814-3.576,3.431-7.487
		c-0.384-3.912-2.542-6.902-4.821-6.678C964.421,254.877,962.885,258.229,963.268,262.141z"/>
	<path style="fill:#13375B;" d="M997.073,242.471c0,0,3.552,26.243,12.036,30.979c8.484,4.735,4.933,16.377,4.933,16.377
		s7.695-27.032,0.986-35.714C1008.32,245.431,997.073,242.471,997.073,242.471z"/>
	<path style="fill:#F7A491;" d="M1004.084,277.217c-2.301,3.419-2.292,7.452,0.018,9.007c2.311,1.555,6.05,0.044,8.351-3.375
		c2.301-3.419,2.292-7.452-0.019-9.007C1010.123,272.287,1006.385,273.798,1004.084,277.217z"/>
	<path style="fill:#FFFFFF;" d="M975.547,278.677l13.804,3.474c0,0-1.659,5.243-7.775,3.893
		C974.119,284.398,975.547,278.677,975.547,278.677z"/>
	<path style="fill:#50BFA5;" d="M1044.079,500.661c0.663-0.033,59.509-2.992,59.509-2.992s-24.419,17.548-24.917,17.548
		s-19.446-7.479-20.277-7.479S1044.079,500.661,1044.079,500.661z"/>
	<path style="fill:#F7A491;" d="M2235.529,1831.328c0,0,1.164,20.643,1.172,20.685c0.428,2.621,2.114,9.096,2.114,11.479
		c0,8.95-39.708-7.598-30.809-11.564c0.806-0.359,5.025-3.074,5.29-6.12c0.408-4.693,1.443-14.188,1.443-14.188L2235.529,1831.328z"
		/>
	<path style="fill:#F7CC7F;" d="M2207.626,1852.016c0,0,9.322,2.738,14.097,3.422c4.775,0.685,11.07-5.078,14.447-3.521
		c3.718,1.713,3.572,17.137,3.572,17.137s-49.994,4.391-64.052-0.151C2170.121,1867.102,2188.567,1858.393,2207.626,1852.016z"/>
	<path style="fill:#F7A491;" d="M2301.654,1830.259c0,0,1.165,20.642,1.172,20.685c0.428,2.62,2.115,9.096,2.115,11.478
		c0,8.95-39.708-7.598-30.809-11.563c0.805-0.359,6.275-5.102,6.541-8.148c0.408-4.693,0.192-12.161,0.192-12.161L2301.654,1830.259
		z"/>
	<path style="fill:#F7CC7F;" d="M2274.23,1850.772c0,0,9.322,2.737,14.098,3.422c4.774,0.685,11.069-5.079,14.446-3.522
		c3.718,1.714,3.866,17.137,3.866,17.137s-49.638,2.039-64.346-0.151C2236.508,1866.796,2255.172,1857.148,2274.23,1850.772z"/>
	<path style="fill:#355389;" d="M2289.877,1502.402c0,0,6.729,34.82,3.986,61.223c-2.742,26.402-2.957,120.191-2.957,120.191
		l12.649,150.013l-27.016,0.63c0,0-29.444-149.99-28.896-146.141c0.549,3.851-9.872-105.609-9.872-105.609l35.102-83.607
		L2289.877,1502.402z"/>
	<path style="fill:#466EB6;" d="M2280.463,1479.915c0,0,30.485,32.11,19.146,67.185c-4.555,14.089-47.043,148.676-47.591,159.677
		c-0.549,11.001-14.369,132.595-14.369,132.595l-28.873-0.869l-6.246-135.188l8.252-182.149l17.525-30.72L2280.463,1479.915z"/>
	<path style="fill:#F47458;" d="M2095.373,1375.4c9.982-11.138,31.711-26.987,31.711-26.987s12.943-11.056,18.221-12.875
		c7.767-2.678,21.069-9.821,40.311,19.339c13.77,20.868,100.654,128.92,114.917,132.558l-93.138,44.559
		c-2.551-21.284-48.585-61.488-55.209-68.99C2137.38,1446.235,2085.923,1385.945,2095.373,1375.4z"/>
	<path style="fill:#F7A491;" d="M2099.716,1330.128l29.014,16.985c0,0,0.816,24.766-8.669,31.198
		c-7.958,5.397-14.015-7.557-14.015-7.557s-10.789-14.95-18.983-19.607C2078.867,1346.49,2099.716,1330.128,2099.716,1330.128z"/>
	<path style="fill:#F47458;" d="M2104.584,1341.028c-1.092,5.167-3.617,12.637-7.53,18.79c-3.196-3.458-6.789-6.852-9.991-8.671
		c-3.782-2.149-1.375-6.791,2.311-11.167c5.205-5.42,10.343-9.853,10.343-9.853l5.575,3.265
		C2105.651,1335.508,2104.947,1339.309,2104.584,1341.028z"/>
	<path style="fill:#F7A491;" d="M2084.604,1287.561c0.487-0.604,24.337,29.085,21.396,43.01
		c-2.94,13.926-17.357,26.633-27.379,23.139c-11.084-3.864-31.693-38.814-24.302-55.784S2084.604,1287.561,2084.604,1287.561z"/>
	<path style="fill:#13375B;" d="M2058.49,1278.196c10.396-5.783,27.356-7.443,40.027-0.809c15.58,8.157,19.129,28.682,14.252,41.2
		c-4.878,12.52,0.707,19.597,0.707,19.597l-8.265-4.827c0,0-4.827-7.535-5.458-13.54c-0.63-6.006-9.391-4.942-13.668-7.666
		c-3.293-2.097-7.496-8.912-12.824-12.448c0,0-13.416-1.646-20.014,2.057C2042,1308.071,2043.599,1286.48,2058.49,1278.196z"/>
	<path style="fill:#F7A491;" d="M2092.789,1317.155c-0.076,4.454,2.028,8.1,4.702,8.144s4.903-3.531,4.98-7.984
		c0.077-4.454-2.028-8.1-4.702-8.144S2092.866,1312.701,2092.789,1317.155z"/>
	<path style="fill:#FFFFFF;" d="M2068.362,1340.795l12.626-9.441c0,0,3.338,5.102-2.093,9.417
		C2072.273,1346.032,2068.362,1340.795,2068.362,1340.795z"/>
	<path style="fill:#F8A492;" d="M2036.649,1528.607c3.164-4.619,4.542-11.289,8.916-16.375c1.469-1.709,3.806-3.634,6.468-5.553
		c21.037-12.308,75.837-44.035,77.97-46.498c2.527-2.918,39.931-65.061,39.931-65.061l-33.593-7.611l-32.828,57.969
		c-2.741,2.176-54.853,40.689-54.853,40.689s-10.361,8.097-16.025,11.886c-2.862,1.67-5.637,2.751-8.066,3.596
		c-3.057,1.063-8.883,3.966-10.061,5.002c-1.368,1.205-4.107,3.78-5.735,5.353c-1.628,1.571-3.604,3.348-4.366,4.282
		c-0.463,0.569-1.904,1.354-2.961,1.882c-1.575,0.785-1.37,3.116,0.322,3.596c1.596,0.451,3.751-0.549,5.087-1.178
		c3.771-1.772,8.381-6.559,8.625-5.974s-4.436,10.841-4.896,12.048c-0.459,1.207-5.834,13.156-6.109,15.821
		c-0.275,2.664,1.33,3.279,2.523,2.305c1.028-0.838,9.671-16.794,9.671-16.794s1.106-2.033,1.537-0.87
		c0.43,1.163-7.389,15.666-8.152,18.046c-0.764,2.381-0.155,4.333,2.046,3.498c2.676-1.015,10.068-17.01,10.068-17.01
		s0.962-1.989,1.619-1.297c0.657,0.693-6.2,12.922-6.277,14.33c-0.076,1.409,1.195,2.798,3.046,1.621
		c2.179-1.387,8.656-15.723,8.656-15.723s0.8-0.949,1.051-0.282c0.252,0.666-4.852,11.51-4.471,13.094
		c0.32,1.331,1.517,1.064,1.517,1.064C2029.979,1544.456,2033.486,1533.227,2036.649,1528.607z"/>
	<path style="fill:#355389;" d="M2160.734,1427.946c0,0-10.939-3.48-17.957-6.693c-4.699-2.151-25.199-12.353-25.199-12.353
		s8.838-37.281,14.813-50.686c21.926-49.195,46.843-15.268,50.224-7.359C2190.176,1368.545,2160.734,1427.946,2160.734,1427.946z"/>
	<path style="fill:#FFFFFF;" d="M1396.612,1299.127l10.41-7.784c0,0,2.753,4.206-1.726,7.765
		C1399.837,1303.445,1396.612,1299.127,1396.612,1299.127z"/>
	<path style="fill:#184655;" d="M2618.76,1867.95H200.07c-3.024,0-5.475,3.128-5.475,6.987l0,0c0,3.858,2.451,6.987,5.475,6.987
		H2618.76c3.023,0,5.475-3.129,5.475-6.987l0,0C2624.234,1871.078,2621.783,1867.95,2618.76,1867.95z"/>
	<path style="fill:#F7A491;" d="M1104.939,497.612c-0.246-0.628-0.797-0.641-1.359-0.658c-5.463-0.167-10.919-0.412-16.335-1.222
		c-0.904-0.135-1.794-0.338-2.625-0.67c-1.507-0.602-2.995-0.587-4.516-0.166c-0.824,0.228-1.66,0.271-2.51,0.267
		c-2.746-0.012-10.581-2.678-14.606-3.381c-0.919-0.161-1.649-0.856-1.877-1.761c-3.96-15.66-12.453-50.795-13.555-62.349
		c-1.408-14.775-11.611-81.389-11.611-81.389l-27.299,7.613c0,0,11.236,49.171,14.343,73.015
		c2.398,18.411,20.799,57.479,26.566,68.713c2.818,8.362,9.14,8.594,10.609,8.773c0.84,0.103,1.612,0.515,2.163,1.158
		c0.997,1.161,2.138,2.172,3.443,2.996c0.968,0.611,1.714,1.407,2.352,2.338c1.16,1.694,2.196,3.462,3.223,5.238
		c0.681,1.177,1.393,1.549,2.403,1.272c1.083-0.297,1.6-1.098,1.579-2.418c-0.031-1.95-0.653-3.714-1.632-5.377
		c-0.917-1.558-0.85-2.464,0.218-3.898c0.614-0.824,1.246-1.624,2.051-2.278c0.819-0.667,1.68-1.172,2.792-1.017
		c1.962,0.49,3.941,0.887,5.953,1.109l1.652,0.337c0.058,0.009,0.901,0.191,0.901,0.191c0.139,0.036,3.044,0.354,4.038,0.355
		c0.799,0.001,2.093,0.054,3.194,0.107c0.996,0.048,3.103-0.472,3.175-0.474c0.97-0.021,1.827-0.372,2.55-1.022
		c0.296-0.266,0.581-0.564,0.431-1.016c-0.139-0.415-0.464-0.591-0.887-0.668c-0.656-0.118-4.046-0.53-4.008-0.674
		c1.007,0,4.16-0.074,5.166-0.101c1.356-0.036,2.532-0.522,3.467-1.525C1104.758,498.635,1105.186,498.243,1104.939,497.612z"/>
	<path style="fill:#9BC1F9;" d="M1019.408,311.475c13.473-2.45,24.589,57.833,24.589,57.833s-29.936,8.357-37.605,3.974
		c0,0-8.707-38.589-11.826-37.241L1019.408,311.475z"/>
	<path style="fill:#F7A491;" d="M693.625,1395.029c0.892-2.556-11.534-4.619-12.195-7.203c-0.662-2.585,15.689-2.786,16.274-5.057
		c1.079-4.183-17.921-0.881-17.547-2.837c0.375-1.956,19.799-6.326,17.7-9.683s-19.669,6.633-20.202,4.355
		c-0.532-2.278,17.175-7.819,16.858-12.813c-0.169-2.669-29.062,13.309-32.413,11.857c-3.351-1.45,3.604-13.994,0.937-15.855
		c-2.668-1.861-10.325,25.494-12.166,26.406c-1.835,0.91-40.872,23.189-54.761,26.731c-1.687-4.652-5.333-10.927-6.82-15.325
		c-7.793,5.546-13.579,8.329-21.622,13.385c5.827,14.603,14.12,30.591,18.179,32.425c12.36,5.585,60.165-34.063,69.706-40.848
		c9.551-6.791,15.016-4.59,21.474-6.734C683.485,1391.689,692.733,1397.584,693.625,1395.029z"/>
	<path style="fill:#F7CC7F;" d="M566,1416c0,0-10.7-47.254-8.844-60.961c1.855-13.707,18.148-26.483,29.438-21.744
		C597.883,1338.035,603,1404,603,1404L566,1416z"/>
</g>
</svg>
